<?xml version="1.0" encoding="utf-8"?>
<!-- Generator: Adobe Illustrator 27.4.1, SVG Export Plug-In . SVG Version: 6.00 Build 0)  -->
<svg version="1.1" id="Capa_1" xmlns="http://www.w3.org/2000/svg" xmlns:xlink="http://www.w3.org/1999/xlink" x="0px" y="0px"
	 viewBox="0 0 37 55" style="enable-background:new 0 0 37 55;" xml:space="preserve">
<style type="text/css">
	.st0{fill:#676767;}
</style>
<path class="st0" d="M34.5,48.6c0-0.2,0-0.3-0.2-0.4c-0.1-0.1-0.1-0.2-0.2-0.2c-0.2-0.1-0.3-0.1-0.5-0.2c0,0,0,0-0.1,0
	c-0.1,0-0.1-0.1-0.2-0.1c-0.2,0-0.5,0-0.7,0c-0.2,0-0.4,0-0.6-0.1c-0.1,0-0.2-0.1-0.3-0.2c-0.2-0.1-0.4-0.1-0.7-0.2c0,0-0.1,0-0.1,0
	c0,0,0.1,0,0.1-0.1c-0.3-0.1-0.7-0.2-1-0.2c0,0,0,0,0.1-0.1c-0.1,0-0.2,0-0.3,0c-0.3-0.1-0.6-0.1-1-0.2c0,0-0.1,0-0.1,0
	c0-0.1,0-0.1-0.1-0.1c-0.3-0.1-0.6-0.1-0.9-0.2c0,0-0.1,0-0.1,0c0,0,0,0,0,0c0,0,0.1,0,0.1,0c-0.2,0-0.3-0.1-0.4-0.1
	c-0.4-0.1-0.7-0.3-1.1-0.4c0,0,0,0,0,0c0-0.1-0.1-0.1-0.2-0.1c-0.1,0-0.1,0-0.1-0.1c0-0.1,0-0.2,0-0.2c0.1-0.1,0.2-0.2,0.2-0.3
	c0.1-0.3,0-0.5-0.2-0.7c-0.1-0.1-0.2-0.2-0.3-0.3c-0.1,0-0.2-0.1-0.2-0.2c-0.1,0-0.2-0.1-0.3-0.1c0,0-0.1,0-0.1,0
	c-0.1-0.1-0.2-0.2-0.3-0.2c-0.1,0-0.2-0.1-0.2-0.2c0-0.2,0-0.3-0.1-0.5c-0.1-0.1-0.1-0.2-0.2-0.3c-0.1,0-0.1-0.1-0.2-0.1
	c-0.1-0.1-0.2-0.2-0.3-0.2c-0.1,0-0.1-0.1-0.1-0.1c-0.1-0.1-0.3-0.2-0.5-0.4c-0.1,0-0.1-0.1-0.2-0.1c-0.1,0-0.1-0.1-0.2-0.2
	c-0.3-0.2-0.6-0.2-0.9-0.1c-0.1,0-0.2,0-0.3,0.2c0,0.1-0.1,0-0.1,0c0-0.1-0.1-0.1-0.2-0.1c-0.1,0-0.2-0.1-0.3-0.2c0,0,0,0,0,0
	c0-0.1-0.1-0.1-0.2-0.1c-0.1,0-0.1-0.1-0.2-0.1c-0.1,0-0.1-0.1-0.2-0.1c-0.1,0-0.1-0.1-0.2-0.2c-0.1-0.2-0.1-0.5-0.2-0.7
	c-0.1-0.2-0.2-0.3-0.3-0.4c-0.1-0.1-0.2-0.1-0.2-0.1c-0.1-0.1-0.3-0.3-0.4-0.4c0,0,0,0-0.1,0c-0.1,0-0.1,0-0.2-0.1
	c-0.2-0.2-0.5-0.3-0.8-0.5c-0.2-0.1-0.4,0-0.6,0c0,0,0.1,0,0.1,0c0,0-0.1,0-0.1,0c-0.1,0-0.1,0-0.2,0.1c-0.2,0.2-0.3,0.1-0.5-0.1
	c0,0-0.1-0.1-0.1-0.1c0,0-0.1-0.1-0.1-0.1c0-0.1,0-0.2-0.1-0.3c0-0.3-0.1-0.5-0.1-0.8c0-0.1,0-0.2,0-0.4c0,0,0.1,0,0.1-0.1
	c0.1-0.1,0.1-0.2,0.2-0.3c0-0.2,0-0.4,0-0.5c0-0.3,0-0.5-0.1-0.8c-0.1-0.3-0.1-0.6-0.1-0.9c0-0.3-0.1-0.6-0.4-0.8c0,0,0,0,0-0.1
	c0-0.2,0-0.4-0.1-0.6c-0.1-0.3,0-0.7-0.1-1c0-0.2,0-0.4,0-0.5c0,0,0.1-0.1,0.1-0.1c0,0,0.1-0.1,0.1-0.1c0,0,0-0.1,0.1-0.2
	c0.1-0.2,0.1-0.4,0.1-0.5c0-0.3,0-0.5,0-0.8c0-0.3,0-0.6,0-0.9c0-0.1-0.1-0.3-0.1-0.4c0-0.1-0.1-0.2-0.2-0.3
	c-0.2-0.1-0.3-0.3-0.3-0.5c0-0.4,0-0.8-0.1-1.1c-0.1-0.2-0.3-0.3-0.5-0.4c0,0,0,0,0,0c0,0,0,0,0.1-0.1c-0.1,0-0.2,0-0.3-0.1
	c-0.1,0-0.2,0-0.3-0.1c0,0,0,0,0,0.1c0-0.2,0-0.3,0-0.5c0,0,0,0,0,0c0,0,0,0.1,0,0.1c0,0,0,0,0,0c0-0.2,0-0.3,0-0.5c0,0,0,0,0,0
	c0,0.1,0,0.1,0,0.2c0-0.1,0-0.2,0-0.3c0-1,0-2.1,0-3.1c0-0.4,0-0.9,0-1.3c0-0.3-0.1-0.3-0.3-0.3c-0.1,0-0.2,0.1-0.2,0.2
	c0,0.5,0,1,0,1.4c0,1.3,0,2.6,0,3.9c0,0.1,0,0.1-0.1,0.1c-1,0-2.1,0-3.1,0c0,0-0.1,0-0.1,0c0,0,0,0,0.1,0c-0.6,0-1.1,0-1.7,0
	c-0.5,0-1.1,0-1.6,0.1c0,0-0.1,0-0.1,0c0.1,0,0.1-0.1,0.1-0.1c0,0-0.1,0-0.1,0c-1,0-2.1,0.1-3.1,0.1c-0.1,0-0.1,0-0.1-0.1
	C4.1,24.5,4,23.2,4,21.9c0-0.5-0.1-0.9-0.1-1.4c0-0.1-0.1-0.2-0.2-0.2c-0.2,0-0.3,0.1-0.3,0.3c0,0.4,0.1,0.9,0.1,1.3
	c0,1,0.1,2.1,0.1,3.1c0,0.1,0,0.2,0,0.3c0-0.1,0-0.1,0-0.2c0,0,0,0,0,0c0,0.2,0,0.3,0,0.5c0,0,0,0,0,0c0,0,0-0.1,0-0.1c0,0,0,0,0,0
	c0,0.1,0,0.3,0,0.5c0,0,0-0.1,0,0C3.5,26,3.5,26,3.4,26c-0.1,0-0.2,0-0.3,0.1c0.1,0,0.1,0,0.1,0.1c0,0,0,0,0,0
	c-0.2,0.1-0.3,0.2-0.4,0.4c-0.2,0.4-0.1,0.7-0.1,1.1c0,0.1,0.2,1.5,0.2,1.6c0,0.5,0.1,0.9,0.1,1.4c0,0.3,0,0.6,0.1,0.8
	c0.1,0.4,0.1,0.8,0.1,1.2c0,0.7,0,1.3,0.1,2c0.1,0.4,0,0.8,0.1,1.1c0,0.8,0.1,1.6,0.1,2.5c0,0.5,0,1,0,1.6c0,0.2-0.1,0.4-0.1,0.6
	c0,0.2-0.1,0.4-0.2,0.6c0,0.2-0.1,0.3-0.2,0.5c0,0.2-0.1,0.3-0.1,0.5c0,0.1-0.1,0.3-0.1,0.4c0,0.1-0.1,0.3-0.1,0.4
	c0,0.2-0.1,0.3-0.1,0.5c-0.1,0.2-0.1,0.4-0.2,0.6c0,0.2-0.1,0.4-0.2,0.7C2,44.8,2,45,2,45.2c0,0.2,0.1,0.4,0.2,0.5
	c0.1,0.1,0.1,0.2,0.3,0.1c0,0,0.1,0.1,0.1,0.1c0,0.5,0,1.1,0,1.6c0,0.2,0,0.4,0.1,0.6c0.1,0.2,0.2,0.4,0.2,0.6c0,0,0.1,0.1,0.1,0.1
	C3,48.9,3,49,3,49c0.1,0.1,0.1,0.2,0.2,0.4c0,0,0,0,0,0c0.3,0.5,0.8,0.9,1.2,1.2c0,0,0-0.1,0-0.1c0.1,0.1,0.2,0.2,0.3,0.2
	c0.1,0,0.1,0.1,0.1,0.1c0,0,0.1,0,0.1,0c0.1,0,0.1,0,0.1,0c0,0,0.1,0.1,0.1,0.1c0.2,0,0.4,0.1,0.6,0.2c0.2,0.1,0.4,0.1,0.6,0.1
	c0.3,0,0.7,0,1,0c0.1,0,0.1,0,0.1,0.1c0,0.2,0,0.3,0.2,0.5c0.2,0.2,0.3,0.3,0.5,0.3c0.3,0,0.5,0,0.8,0c0.5,0,1-0.1,1.4-0.2
	c0.3-0.1,0.7-0.1,1-0.1c0.2,0,0.5,0,0.7-0.1c0.3-0.1,0.5-0.2,0.8-0.2c0.4,0,0.8,0,1.1-0.1c0.4-0.1,0.9-0.2,1.3-0.2c0.7,0,1.3,0,2,0
	c0.4,0,0.9,0,1.3,0.1c0.3,0.1,0.7,0.1,1.1,0.1c0.3,0,0.5,0,0.8,0.1c0,0,0.1,0,0.1,0.1c0.1,0,0.2,0,0.2,0.1c0.3,0,0.5,0.1,0.8,0.1
	c0.3,0,0.6,0,0.8,0.1c0.1,0,0.2,0,0.3,0c0.3,0.1,0.8,0.1,1-0.2c0.1-0.1,0.2-0.3,0.3-0.5c0,0,0-0.1,0-0.1c0.1,0,0.3,0,0.4,0
	c0.9,0,1.7,0,2.6,0c0.4,0,0.9,0,1.3-0.1c0.2,0,0.4-0.1,0.6-0.2c0.7-0.1,1.5,0,2.2,0c0.1,0,0.1,0,0.2,0c0.2,0,0.3,0,0.5-0.1
	c0.3,0,0.6,0,0.8-0.1c0.1,0,0.3-0.1,0.4-0.1c0.1-0.1,0.2-0.1,0.3-0.1c0,0,0,0,0.1,0c0.1,0,0.1-0.1,0.2-0.1c0.4-0.2,0.6-0.5,0.7-0.9
	C34.5,49.2,34.5,48.9,34.5,48.6z M21.6,42.4c0.1-0.1,0.1-0.2,0.2-0.3c0.1-0.2,0.4-0.3,0.6-0.2c0.1,0.1,0.3,0.1,0.3,0.3
	c0-0.1,0-0.1,0-0.1c0,0,0.1,0.1,0.1,0.1c0,0.1,0.1,0.1,0.2,0.1c0.1,0,0.1,0,0.2,0.1c0,0,0.1,0.1,0.1,0.1c0.1,0.1,0.2,0.1,0.2,0.2
	c0,0,0.1,0,0.1,0c0.1-0.1,0.1,0,0.1,0.1c0,0,0.1,0.1,0.1,0.1c0.2,0.1,0.3,0.2,0.2,0.4c0,0.1-0.1,0.2-0.1,0.3c0,0,0,0,0,0
	c0,0,0,0,0-0.1c0,0.1-0.1,0.2-0.1,0.2c-0.1,0.2-0.3,0.4-0.5,0.6c-0.1,0.1-0.1,0.2-0.2,0.3c0,0.1-0.1,0.1-0.1,0.2c0-0.1,0-0.1,0-0.1
	c-0.1,0.1-0.1,0.2-0.2,0.3c-0.1,0-0.3,0-0.4,0c0,0,0,0,0,0c0,0,0.1,0,0.1,0c-0.2-0.1-0.4,0-0.6-0.2c-0.1,0.1-0.1,0-0.2-0.1
	c-0.1,0-0.1-0.1-0.2-0.1c0,0-0.1,0-0.1,0c-0.2-0.2-0.3-0.3-0.5-0.5c-0.1-0.1-0.2-0.2-0.3-0.4c0,0,0-0.1,0-0.2
	c0.1-0.1,0.1-0.2,0.2-0.3C21.1,43,21.4,42.7,21.6,42.4z M22.5,45.6c-0.1,0.2-0.2,0.3-0.3,0.5c-0.2,0.3-0.4,0.5-0.6,0.8
	c-0.1,0.2-0.3,0.3-0.4,0.5c-0.1,0.1-0.1,0.2-0.2,0.3c0,0.1-0.1,0.1-0.2,0.2c0,0,0,0,0,0.1c-0.1,0.2-0.3,0.4-0.4,0.5c0,0,0,0,0,0
	c-0.1,0-0.1,0-0.2,0c0,0,0,0-0.1,0c-0.1-0.2-0.3-0.1-0.4-0.3c-0.1,0-0.2-0.1-0.3-0.2c-0.1-0.1-0.2-0.2-0.3-0.2
	c-0.1-0.1-0.3-0.1-0.4-0.2c0,0-0.1-0.1-0.1-0.1c-0.1,0-0.2-0.1-0.2-0.1c-0.2-0.1-0.2-0.3-0.1-0.5c0.3-0.4,0.6-0.8,0.9-1.2
	c0.2-0.3,0.4-0.6,0.7-0.9c0.1-0.1,0.2-0.2,0.2-0.4c0,0,0,0,0.1-0.1c0.2,0.4,0.6,0.7,0.9,0.9c0.1-0.1,0.1,0,0.1,0
	c0,0.1,0.1,0.1,0.2,0.1c0.1,0,0.1,0.1,0.2,0.1c0.1,0.1,0.3,0.1,0.4,0.2C22.3,45.6,22.4,45.6,22.5,45.6z M17.4,39.2
	c0.1-0.1,0.3-0.1,0.4-0.1c0.2,0,0.3,0,0.5,0.1c0.1,0.1,0.2,0.2,0.3,0.3c0,0,0.1,0,0.1,0c0.1,0.1,0.2,0.2,0.3,0.2
	c0,0,0.1,0.1,0.1,0.1c0,0,0.1,0.1,0.1,0.1c0.1,0.1,0.2,0.1,0.3,0.2c0.2,0.1,0.2,0.3,0.2,0.4c0,0.2-0.1,0.4-0.2,0.6c0,0,0-0.1,0-0.1
	c0,0.1-0.1,0.2-0.1,0.2c0,0.1-0.1,0.1-0.2,0.2c0,0,0,0,0,0c-0.1,0.2-0.3,0.4-0.4,0.7c-0.1,0.2-0.2,0.2-0.4,0.1
	c-0.1,0-0.2-0.1-0.3-0.1c0,0,0-0.1-0.1-0.1c0,0-0.1,0-0.1-0.1c-0.2-0.1-0.4-0.3-0.6-0.4c0,0,0,0-0.1,0c0,0-0.1,0-0.1-0.1
	c0-0.1-0.1-0.2-0.3-0.3c-0.1,0-0.1-0.1-0.1-0.2c0,0,0-0.2-0.1-0.1c0,0,0,0,0,0c0-0.1-0.2-0.2-0.2-0.3c0,0-0.1,0-0.1-0.1
	c0.1-0.2,0.3-0.4,0.4-0.5C16.9,39.8,17.1,39.5,17.4,39.2z M18.2,42.9c0,0-0.1,0.1-0.1,0.1c0,0,0,0.1-0.1,0.1c0,0,0-0.1,0-0.1
	c0,0.1-0.1,0.1-0.1,0.2c0,0.1-0.1,0.2-0.1,0.2c-0.2,0.1-0.2,0.3-0.3,0.4c0,0,0,0,0,0c0,0,0,0,0,0c-0.1,0.1-0.1,0.3-0.2,0.4
	c0,0,0,0,0,0c-0.2,0.1-0.2,0.3-0.3,0.4c-0.2,0.2-0.3,0.4-0.5,0.7c-0.1,0.1-0.2,0.2-0.3,0.1c-0.1-0.1-0.2-0.2-0.3-0.3c0,0,0,0,0,0
	c0,0-0.1,0-0.1-0.1c0,0-0.1-0.1-0.1-0.1c-0.1-0.1-0.2-0.1-0.2-0.2c0,0,0,0-0.1-0.1c-0.2-0.1-0.4-0.2-0.5-0.3
	c-0.2-0.1-0.3-0.2-0.5-0.3c-0.1-0.1-0.1-0.3,0-0.4c0.3-0.4,0.5-0.7,0.8-1.1c0.2-0.3,0.5-0.6,0.7-1c0.1-0.1,0.2-0.3,0.3-0.5
	c0,0,0,0,0,0c0.1,0,0.2,0.1,0.3,0.2c0.1,0.1,0.2,0.2,0.2,0.3c0,0,0.1,0.1,0.1,0.1c0.1,0.1,0.1,0.1,0.2,0.2c0,0,0,0.1,0.1,0.1
	c0.3,0.2,0.6,0.4,0.9,0.6c0.1,0.1,0.2,0.1,0.4,0.1C18.2,42.7,18.2,42.8,18.2,42.9z M16,35c0,0.3,0.1,0.6,0.1,0.9c0,0.1,0,0.2,0,0.3
	c0,0-0.1,0.1-0.1,0.1c-0.1,0-0.1,0-0.1,0.1c0,0-0.1,0-0.1,0c-0.4,0-0.8,0.1-1.3,0.1c0,0-0.1,0-0.1,0c-0.1,0-0.3,0-0.4-0.1
	c0,0-0.1-0.1-0.1-0.1c-0.1-0.1-0.1-0.2-0.2-0.2c0-0.1-0.1-0.1-0.2-0.2c-0.2-0.2-0.2-0.5-0.2-0.8c0,0,0-0.1,0-0.1c0,0,0,0,0,0
	c0-0.3,0.1-0.6,0.1-1c0-0.1,0-0.1,0.1-0.1c0.3,0,0.5,0,0.8,0c0.2,0,0.4,0,0.6-0.1c0.2-0.1,0.4,0,0.6-0.1c0.1,0,0.1,0,0.1,0.1
	C15.9,34.3,16,34.7,16,35z M10.9,37.1C10.9,37.1,10.9,37.1,10.9,37.1c-0.2,0-0.3,0.1-0.4,0.1c-0.5,0-1,0.1-1.5,0.1
	c-0.3,0-0.3,0-0.4-0.3c0-0.3,0-0.6-0.1-0.9c0-0.4-0.1-0.8-0.1-1.1c0-0.2,0.1-0.3,0.3-0.3c0.4,0,0.7,0,1.1-0.1c0.2,0,0.3-0.1,0.5-0.1
	c0.1,0,0.1,0,0.2,0c0.7-0.2,1.4-0.1,2-0.2c0.1,0,0.2,0,0.2-0.1c0.1,0,0.2,0,0.2,0c0,0.2-0.1,0.4-0.1,0.7c0,0.3,0,0.7,0.1,1
	c0,0,0,0.1,0.1,0.1c0,0.1,0.1,0.1,0.1,0.2c0,0.1,0,0.1,0.1,0.2c0,0.1,0.1,0.1,0.1,0.2c0.1,0.1,0.1,0.2,0.1,0.3c0,0,0,0-0.1,0
	c-0.8,0.1-1.5,0.1-2.3,0.2c-0.1,0-0.2,0-0.3,0C10.8,37.1,10.8,37.1,10.9,37.1z M15.4,28.1c0.1,0,0.2,0,0.2,0.1c0,0,0,0,0,0
	c0.2,0,0.1,0.1,0.2,0.2c0.1,0.6,0.1,1.2,0.1,1.9c0,0.2-0.1,0.4-0.4,0.4c-0.8,0-1.6,0-2.3,0.1c-0.1,0-0.2,0-0.3,0
	c-0.1,0-0.2-0.1-0.3-0.2c0,0,0,0,0,0.1c-0.1-0.2-0.2-0.3-0.3-0.5c0,0,0,0,0,0.1c0,0,0,0,0,0c0-0.1-0.1-0.2-0.1-0.3
	c-0.1-0.3,0-0.6,0.2-0.9c0.1-0.2,0.2-0.3,0.3-0.5c0.1-0.1,0.2-0.2,0.4-0.2c0.4,0,0.8,0,1.2,0c0.1,0,0.2-0.1,0.3-0.1
	C14.8,28.2,15.1,28.2,15.4,28.1z M7.4,50.8c-0.2,0-0.5,0-0.7,0c-0.1,0-0.1-0.1-0.2-0.1c-0.1,0-0.2,0-0.3-0.1
	c-0.3-0.1-0.5-0.1-0.8-0.2c-0.1-0.1-0.2-0.1-0.4-0.2c-0.1-0.1-0.2-0.2-0.3-0.2c-0.1,0-0.1,0-0.2-0.1c-0.1,0-0.1-0.1-0.2-0.1
	c0,0-0.1,0-0.1-0.1c0,0,0-0.1-0.1-0.1c-0.1-0.1-0.2-0.2-0.3-0.3c-0.2-0.1-0.3-0.3-0.4-0.5c0,0,0,0.1,0,0.1c-0.1-0.2-0.1-0.3-0.2-0.4
	c0-0.1,0-0.2-0.1-0.2c0,0,0,0,0-0.1c-0.1-0.3-0.2-0.6-0.2-0.8c0-0.1,0-0.3-0.1-0.4c0,0.1,0,0.1,0,0.2c0,0,0,0,0,0c0-0.1,0-0.2,0-0.3
	c0-0.3,0.1-0.6,0.1-0.9c0-0.1,0-0.1,0.1-0.1c0.1,0,0.2,0,0.3,0.1c0.2,0,0.4,0.1,0.5,0.1c0.1,0,0.2,0.1,0.3,0.1c0.1,0,0.1,0.1,0.2,0
	c0,0.2,0.1,0.2,0.2,0.2c0,0,0.1,0,0.1,0c0.2,0.1,0.3,0.2,0.5,0.3C5.4,46.9,5.5,47,5.5,47c0.1,0.1,0.2,0.2,0.3,0.3
	c0.2,0.2,0.4,0.4,0.5,0.6c0,0,0.1,0.1,0.1,0.1c0,0,0.1,0.1,0.1,0.1c-0.1,0-0.1,0-0.1,0c0.1,0.1,0.1,0.3,0.2,0.4c0,0,0.1,0,0.1,0.1
	C6.9,48.7,7,48.8,7,49c0,0,0,0.1,0,0.1c0,0,0,0,0.1-0.1c0.1,0.3,0.1,0.6,0.2,0.9c0,0.1,0.1,0.2,0.1,0.3c0,0.1,0.1,0.2,0.1,0.4
	C7.5,50.7,7.5,50.7,7.4,50.8z M24,48.9c-0.1,0.1-0.1,0.3-0.1,0.5c0,0.3-0.1,0.6-0.1,0.8c0,0.3-0.1,0.5-0.2,0.8c0,0.1,0,0.1,0,0.2
	c0,0.2-0.2,0.3-0.4,0.3c-0.3,0-0.6-0.1-0.9-0.1c-0.2,0-0.3,0-0.5-0.1c0,0,0,0,0.1-0.1c-0.7-0.1-1.4-0.1-2.1-0.2c0,0,0,0,0.1-0.1
	c-0.4,0-0.8-0.1-1.2-0.1c-0.3,0-0.7-0.1-1-0.1c0,0-0.1,0-0.1,0c0,0-0.1-0.1-0.1-0.1c-0.6,0-1.2,0-1.7,0c0,0,0,0,0,0c0,0,0,0,0.1,0.1
	c-0.9,0.1-1.8,0.2-2.6,0.2c0,0,0,0,0,0c0.1,0,0.1,0,0.2,0c0,0,0,0,0,0c-0.6,0.1-1.3,0.1-1.9,0.2c0,0,0,0,0,0c0.1,0,0.1,0,0.2,0
	c0,0,0,0,0,0c-0.4,0-0.9,0.1-1.3,0.1c-0.4,0-0.9,0.1-1.3,0.1c0,0,0,0,0,0c0.1,0,0.1,0,0.2,0c0,0,0,0,0,0c-0.2,0-0.4,0-0.6,0
	c-0.2,0-0.2,0-0.3-0.2c0-0.2,0-0.5-0.1-0.7c-0.1-0.2-0.1-0.4-0.1-0.6c0-0.2-0.1-0.4-0.1-0.6c0,0,0,0-0.1-0.1c0-0.1,0-0.2-0.1-0.2
	c-0.1-0.2-0.1-0.4-0.2-0.5c-0.1-0.1-0.1-0.3-0.2-0.4c0,0,0-0.1-0.1-0.1C7.1,48.1,7,48,7,47.9c0-0.1-0.1-0.2-0.2-0.3
	c-0.1-0.1-0.2-0.2-0.3-0.3c-0.1-0.1-0.2-0.3-0.4-0.4c-0.1-0.1-0.1-0.1-0.2-0.2c0,0-0.1-0.1-0.1-0.1c0,0-0.1-0.1-0.1-0.1
	c-0.1-0.1-0.2-0.2-0.4-0.2C5.2,46.1,5,46,4.8,45.9c-0.2-0.1-0.4-0.1-0.6-0.2c0,0-0.1,0-0.1,0c0-0.1-0.1-0.1-0.2-0.1
	c-0.4-0.1-0.8-0.1-1.2-0.2c0,0-0.1,0-0.1-0.1c0-0.1,0-0.2,0-0.3c0-0.2,0-0.3,0.1-0.5c0.1-0.2,0.1-0.4,0.2-0.6
	c0.1-0.4,0.2-0.7,0.3-1.1c0.1-0.3,0.2-0.6,0.3-0.8c0.1-0.2,0.1-0.5,0.2-0.7c0-0.2,0.1-0.3,0.1-0.5c0.1-0.2,0.1-0.5,0.1-0.7
	c0-0.4,0.1-0.7,0.1-1.1c0-0.4,0-0.9,0-1.3c0,0,0,0,0,0c0,0.3,0,0.6,0,0.8c0,0,0,0,0,0c0,0,0-0.1,0-0.1c0-0.7,0-1.4,0-2.1
	c0-0.2,0-0.3,0-0.5c0-0.2-0.1-0.4-0.1-0.5c0-0.8-0.1-1.6-0.1-2.4c0-0.1,0-0.3,0-0.5c0,0.1,0,0.1,0,0.1c0-0.4-0.1-0.7-0.1-1.1
	c0-0.6-0.1-1.1-0.1-1.7c0-0.2,0-0.4,0-0.6l0,0c0,0,0,0,0,0c0-0.1,0-0.2,0-0.3c0,0,0,0,0-0.1c-0.1-0.6-0.3-1.7-0.2-2
	c0-0.1,0-0.1,0.1-0.2c0,0.1,0,0.1,0,0.1c0-0.2,0.2-0.2,0.3-0.2c0,0-0.1,0-0.1-0.1c0,0,0,0,0,0c0.3,0,0.6-0.1,0.8,0
	c0.3,0.1,0.5,0.1,0.8,0.1c0.3,0,0.6,0,0.8,0c0.1,0,0.1,0,0.2,0c0.1,0,0.1,0,0.2,0c0.2,0,0.5,0,0.7,0c0.5,0,1-0.1,1.4-0.1
	c0.9,0,1.8,0,2.7,0c0.1,0,0.2,0,0.2,0c0.1,0,0.2,0,0.3,0c0.3,0,0.5,0,0.8,0c0.3,0,0.6,0,0.8,0c0.3,0,0.5,0,0.8-0.1
	c0.2-0.1,0.5,0,0.8,0c0,0,0,0,0,0c0,0-0.1,0-0.1,0.1c0.1,0.1,0.3,0,0.3,0.2c0,0,0-0.1,0-0.1c0,0.1,0.1,0.1,0.1,0.2
	c0.1,0.3,0.1,0.7,0.1,1.1c0,0,0,0.1-0.1,0.1c-0.4,0-0.8,0.1-1.2,0.1c-0.9,0-1.8,0.1-2.7,0.1c-0.4,0-0.9,0-1.3,0c0,0,0.1,0,0.1,0.1
	c0,0,0,0-0.1,0c0,0-0.1,0-0.1,0c-0.7,0-1.5,0-2.2,0.1c-0.1,0-0.2,0-0.3,0c-0.2,0-0.4,0.1-0.4,0.3c0,0-0.1,0.1-0.1,0.1c0,0,0,0,0,0
	c0,0.5,0,1,0.1,1.5c0.1,0.3,0,0.6,0.1,0.9c0,0.2,0,0.3,0.2,0.5c0.2,0.1,0.3,0.2,0.5,0.2c0.3,0,0.6,0,1,0c0,0,0.1,0,0.1,0
	c0-0.1,0.1-0.1,0.2-0.1c0.7,0,1.5,0,2.2-0.1c0.5-0.1,1.1-0.1,1.7-0.1c0.7,0,1.5,0,2.2-0.1c0,0,0.1,0,0.1,0c0,0,0,0,0,0
	c-0.1,0-0.2,0-0.3,0c0,0,0,0,0,0c0.2,0,0.3,0,0.5,0c0,0-0.1,0-0.1,0.1c0.3,0,0.2,0.2,0.2,0.3c0,0.4,0,0.8,0,1.2c0,0,0,0.1,0,0.1
	c0,0,0,0,0,0c0,0,0-0.1,0-0.1c0,0.2,0,0.3,0,0.4c0,0.2,0,0.2-0.2,0.2c0,0-0.1,0-0.1,0c-0.4,0-0.7,0.1-1.1,0.1c0,0,0.1,0,0.1,0.1
	c-0.9,0.1-1.8,0.2-2.6,0.2c0,0,0,0,0,0c0,0,0.1,0,0.1,0c0,0,0,0,0,0c-0.9,0.1-1.7,0.1-2.6,0.2c0.1,0,0.1,0,0.1,0
	c-0.2,0-0.3,0.1-0.5,0c-0.2,0-0.4,0.1-0.7,0.2c0,0,0,0.1,0,0.1c0,0.1,0,0.1-0.1,0.1c0,0-0.1,0-0.1,0c0,0.1,0,0.1,0,0.2
	c0,0.5,0,1,0.1,1.6c0.1,0.2,0,0.5,0.1,0.7c0.1,0.2,0,0.4,0.2,0.6c0.2,0.2,0.4,0.2,0.7,0.2c0.3-0.1,0.7-0.1,1-0.2
	c0.2,0,0.4,0,0.6-0.1c0.3,0,0.5,0,0.8,0c0.3,0,0.5-0.1,0.8-0.1c0,0,0,0,0.1,0c0.1,0,0.3-0.1,0.4-0.1c0.3,0,0.7,0,1-0.1
	c0.3,0,0.7-0.1,1-0.1c0.1,0,0.2-0.1,0.3-0.1c0.2,0,0.4,0,0.6,0c0.1,0,0.1,0,0.1,0.1c0,0.4,0,0.8,0.2,1.2c0.1,0.2,0.1,0.4,0.3,0.5
	c0,0,0.1,0.1,0.1,0.1c0,0,0.1,0.1,0.2,0.1c0,0,0.1,0.1,0.1,0.1c0,0.1-0.1,0.2-0.1,0.3c0,0,0,0,0,0c0,0,0-0.1,0-0.1c0,0,0,0,0,0
	c-0.1,0.1-0.2,0.3-0.2,0.4c-0.2,0-0.1,0.2-0.2,0.3c-0.1,0.1-0.2,0.2-0.2,0.3c-0.1,0.1-0.1,0.2-0.2,0.3c0,0,0,0,0,0c0,0,0,0,0-0.1
	c0,0-0.1,0.1-0.1,0.1c-0.1,0.1-0.1,0.2-0.2,0.3c0,0.1-0.1,0.1-0.2,0.2c-0.1,0.2-0.2,0.4-0.4,0.5c-0.1,0.2-0.2,0.3-0.3,0.5
	c0,0,0,0.1,0,0.1c-0.2,0-0.1,0.2-0.2,0.3c0,0.1-0.1,0.1-0.1,0.2c0,0,0,0,0,0c0,0,0-0.1,0-0.1c-0.1,0-0.1,0.1-0.1,0.2
	c0,0,0,0.1-0.1,0.1c-0.1,0.1-0.2,0.2-0.3,0.4c0,0.1-0.1,0.1-0.1,0.2c-0.1,0.1-0.1,0.2-0.1,0.4c0,0.1,0,0.3,0.2,0.4c0,0,0,0,0,0.1
	c0,0.1,0.1,0.2,0.2,0.2c0.2,0.1,0.2,0.3,0.4,0.3c0,0,0,0,0,0c0.1,0.1,0.2,0.1,0.2,0.2c0.1,0.1,0.1,0.1,0.2,0.1c0,0,0.1,0,0.1,0
	c0.1,0.1,0.2,0.2,0.3,0.2c0,0,0,0,0.1,0.1c0.1,0.1,0.1,0.1,0.2,0.2c0,0,0.1,0,0.1,0c0.2,0.2,0.5,0.3,0.8,0.3c0.2,0,0.4-0.1,0.5-0.2
	c0.3-0.5,0.7-0.9,1-1.4c0.3-0.4,0.6-0.9,1-1.3c0.4-0.5,0.8-1.1,1.2-1.6c0.1-0.1,0.1-0.1,0.2,0c0.2,0.1,0.4,0.2,0.6,0.4
	c0,0,0.1,0,0.1,0c0.1,0.1,0.1,0.1,0.2,0.2c0,0,0,0,0,0c0,0,0-0.1,0-0.1c0.1,0.1,0.2,0.2,0.1,0.4c0,0.1-0.1,0.2-0.1,0.2c0,0,0,0,0,0
	c0,0,0-0.1,0-0.1c-0.1,0.2-0.2,0.3-0.4,0.5c-0.1,0.1-0.2,0.2-0.2,0.3c0,0,0,0,0,0.1c-0.1,0.2-0.1,0.3-0.2,0.5c0-0.1,0-0.1,0-0.1
	C20,43.7,20,43.8,20,43.9c0,0.1-0.1,0.2-0.1,0.2c-0.1,0.1-0.1,0.2-0.2,0.3c0,0,0,0.1,0,0.1c-0.2,0.1-0.2,0.5-0.5,0.6
	c-0.2,0.1-0.2,0.4-0.4,0.5c0,0.1-0.1,0.2-0.1,0.2c-0.1,0.1-0.2,0.2-0.2,0.3c0,0.1-0.1,0.1-0.1,0.2c0,0,0-0.1,0-0.1
	c-0.1,0.2-0.2,0.3-0.2,0.5c0,0,0,0,0-0.1c-0.2,0.4-0.1,0.8,0.3,1c0,0,0,0,0.1,0.1c0.1,0.1,0.1,0.1,0.2,0.2c0.1,0.1,0.2,0.1,0.3,0.2
	c0,0,0,0,0,0c0,0,0-0.1,0-0.1c0,0,0.1,0.1,0.1,0.1c0,0.1,0.1,0.1,0.2,0.1c0.1,0,0.1,0.1,0.2,0.1c0.1,0.1,0.1,0.1,0.2,0.2
	c0,0,0.1,0.1,0.1,0.1c0.1,0,0.1,0.1,0.2,0.1c0.1,0,0.1,0.1,0.2,0.1c0,0,0,0,0.1,0c0.3,0.2,0.7,0.1,0.8-0.1c0.1-0.2,0.3-0.4,0.4-0.6
	c0.3-0.4,0.5-0.8,0.8-1.2c0.2-0.3,0.4-0.6,0.6-0.9c0.2-0.3,0.4-0.6,0.6-0.8c0.2-0.3,0.4-0.6,0.6-0.8c0.1-0.2,0.2-0.3,0.3-0.5
	c0.1,0,0.2,0,0.3,0.1c0,0,0,0,0,0c0,0.1,0.1,0.1,0.2,0.1c0,0,0.1,0,0.1,0c0.1,0.2,0.3,0.2,0.5,0.3c0,0,0.1,0.1,0.1,0.1
	c0.1,0.2,0,0.5-0.2,0.7c0,0,0,0,0-0.1c0,0,0,0.1,0,0.1c-0.1,0.1-0.1,0.2-0.2,0.3c-0.1,0.1-0.1,0.2-0.2,0.4c0,0.1-0.1,0.2-0.1,0.2
	c-0.1,0.1-0.1,0.3-0.2,0.4c0,0.1-0.1,0.1-0.1,0.2c-0.1,0.1-0.1,0.3-0.2,0.4c-0.1,0.2-0.1,0.4-0.2,0.5c0,0.1-0.1,0.3-0.1,0.4
	C24.1,48.4,24.1,48.7,24,48.9z M11.6,30c0.1,0.2,0.1,0.5,0.2,0.7c0,0,0,0,0-0.1c0.1,0.1,0.1,0.2,0.2,0.3c0,0-0.1,0-0.1,0
	c-0.2,0-0.3,0-0.5,0c-0.7,0-1.4,0.1-2,0.1c-0.6,0-1.1,0-1.7,0c-0.2,0-0.2,0-0.2-0.2c0-0.2,0-0.4,0-0.6c0-0.4-0.1-0.8-0.1-1.2
	c0-0.1,0-0.3,0-0.4c0-0.1,0.1-0.1,0.1-0.1c1.1-0.2,2.3-0.1,3.4-0.1c0.3,0,0.6,0,0.9,0c0.1,0,0.1-0.1,0.2-0.1c0,0.1,0,0.3-0.1,0.4
	c0,0-0.1,0-0.1,0.1c-0.1,0.3-0.1,0.5-0.2,0.8C11.5,29.7,11.5,29.8,11.6,30z M34,49.2c0,0.1-0.1,0.3-0.1,0.4c0,0.1-0.1,0.2-0.2,0.3
	c-0.1,0.1-0.2,0.1-0.3,0.2c-0.1,0.1-0.1,0.2-0.3,0.1c-0.2,0.2-0.4,0.1-0.6,0.2c0,0,0,0,0.1,0.1c-0.2,0-0.3,0-0.4,0c-0.5,0-1,0-1.5,0
	c-0.5,0-1,0-1.6,0c-0.5,0-1,0.1-1.5,0.2c0,0,0,0-0.1,0c0.1,0,0.1,0,0.1,0c0,0,0,0,0,0c-0.1,0-0.2,0-0.3,0c-0.4,0-0.7,0-1.1,0
	c-0.1,0-0.3,0-0.4,0c-0.3,0-0.5,0-0.7-0.1c-0.1,0-0.3,0-0.4,0c-0.2,0-0.4,0-0.6,0c-0.1,0-0.1,0-0.1-0.1c0.1-0.2,0.1-0.5,0.2-0.7
	c0-0.2,0.1-0.4,0.1-0.7c0.1-0.3,0.2-0.6,0.2-0.9c0.1-0.3,0.1-0.6,0.3-0.8c0.1-0.1,0.1-0.2,0.1-0.3c0.1-0.3,0.3-0.7,0.4-1
	c0,0,0,0,0-0.1c0-0.1,0.1-0.1,0.2-0.1c0.2,0.1,0.3,0.2,0.6,0.3c0,0,0.1,0,0.1,0c0.2,0.2,0.4,0.2,0.6,0.2c0,0,0.1,0,0.1,0
	c0.2,0.2,0.5,0.2,0.8,0.3c0.1,0,0.1,0.1,0.2,0.1c0.2,0.1,0.4,0.1,0.6,0.2c0.2,0,0.4,0,0.7,0.2c0.2,0.1,0.4,0.1,0.6,0.1
	c0.3,0,0.5,0.1,0.8,0.2c0.3,0.1,0.6,0.3,0.9,0.4c0.1,0,0.2,0,0.2,0c0.5,0.3,1.1,0.2,1.6,0.3c0,0,0.1,0,0.1,0c0.1,0,0.1,0.1,0.2,0.1
	c0.1-0.1,0.1,0,0.2,0.1c0,0,0,0,0.1,0.1C34,48.8,34,49,34,49.2z"/>
</svg>
