<?xml version="1.0" encoding="UTF-8"?><svg id="Capa_2" xmlns="http://www.w3.org/2000/svg" viewBox="0 0 32.53 32"><defs><style>.cls-1{fill:#8a5081;}</style></defs><g id="Capa_1-2"><path class="cls-1" d="m32.52,28.5c0-.17-.04-.32-.18-.44-.07-.06-.13-.15-.22-.19-.17-.07-.35-.11-.52-.17-.02,0-.04-.03-.06-.04-.05-.03-.11-.06-.16-.07-.23-.02-.47-.02-.7-.04-.2-.02-.4-.04-.59-.09-.12-.03-.22-.12-.33-.16-.22-.07-.44-.13-.66-.19-.03,0-.07-.03-.11-.04.03-.02.05-.03.1-.05-.34-.08-.66-.16-.98-.24.03-.02.05-.03.08-.06-.11-.01-.21-.02-.3-.04-.32-.05-.64-.11-.96-.16-.03,0-.06-.03-.09-.04.04-.07-.03-.06-.06-.06-.3-.06-.59-.12-.89-.18-.04,0-.09-.03-.13-.04,0,0,0-.02,0-.02.03,0,.06-.01.11-.03-.16-.04-.31-.06-.44-.11-.36-.14-.7-.31-1.08-.38-.02,0-.05-.02-.05-.03-.01-.12-.12-.11-.19-.14-.05-.02-.13-.04-.14-.08-.02-.08-.03-.16.05-.25.09-.1.16-.22.2-.35.08-.25-.04-.46-.19-.66-.09-.11-.19-.19-.31-.25-.08-.04-.15-.1-.23-.15-.08-.05-.16-.09-.26-.14,0,0-.05,0-.08-.02-.1-.07-.18-.15-.31-.18-.08-.02-.19-.11-.21-.18-.04-.16-.02-.32-.12-.47-.06-.09-.09-.21-.2-.28-.06-.04-.11-.1-.17-.14-.11-.08-.22-.16-.35-.21-.06-.03-.09-.05-.14-.1-.15-.14-.32-.25-.49-.36-.06-.04-.13-.07-.19-.11-.07-.05-.14-.11-.22-.16-.28-.16-.57-.17-.87-.07-.09.03-.21.03-.25.16-.02.06-.09.05-.11,0-.03-.08-.1-.09-.17-.11-.12-.04-.23-.1-.34-.15-.01,0-.02-.02-.02-.03,0-.1-.09-.11-.16-.15-.07-.04-.13-.08-.19-.13-.07-.04-.13-.09-.21-.12-.09-.03-.13-.08-.16-.16-.08-.22-.07-.46-.19-.68-.09-.16-.17-.3-.32-.4-.08-.05-.17-.08-.24-.14-.15-.12-.29-.26-.44-.38-.01-.01-.04-.01-.06-.02-.06-.03-.12-.05-.17-.09-.22-.24-.52-.34-.8-.46-.18-.08-.39-.03-.59.02.05.01.08.02.11.03-.04.03-.08.04-.11.05-.06.02-.14.02-.18.06-.2.16-.31.11-.48-.11-.04-.05-.09-.08-.13-.13-.04-.04-.1-.09-.12-.14-.03-.08-.04-.17-.05-.26-.04-.27-.09-.54-.13-.81-.02-.12-.02-.24-.01-.35,0-.03.08-.05.1-.08.06-.1.14-.2.16-.31.04-.18.05-.37.04-.55-.01-.27-.03-.54-.09-.81-.06-.29-.05-.6-.07-.91-.02-.33-.13-.6-.42-.78-.02-.01-.03-.05-.03-.07-.01-.21-.02-.41-.06-.62-.05-.33-.04-.68-.06-1.02,0-.18-.01-.35,0-.53,0-.04.06-.08.09-.12.05-.04.11-.08.15-.13.03-.05.03-.12.07-.17.13-.16.13-.36.13-.55,0-.27,0-.54,0-.81,0-.29-.02-.57-.04-.86-.01-.13-.09-.26-.11-.39-.03-.13-.09-.25-.2-.31-.19-.11-.25-.27-.25-.49,0-.37.05-.75-.15-1.11-.11-.19-.26-.31-.45-.37-.01,0-.02-.01-.04-.02.03-.02.05-.03.11-.06-.13-.02-.22-.04-.32-.06-.09-.02-.17-.05-.27-.07,0,0,0,.01-.04.05v-.45s.01,0,.02,0c0,.05.02.1.02.15h.01v-.52s0,0-.01,0c0,.07-.01.15-.02.22-.03-.09-.03-.19-.03-.28,0-1.04,0-2.09,0-3.13,0-.44.01-.89.02-1.33,0-.26-.08-.34-.31-.3-.1.01-.15.06-.15.17,0,.48-.02.95-.02,1.43,0,1.31.01,2.62.02,3.93,0,.11-.03.14-.14.14-1.03,0-2.07.02-3.1.04-.03,0-.06,0-.11,0,.02.02.05.03.07.05-.56-.01-1.13,0-1.69.02-.53.01-1.06.05-1.59.07-.04,0-.07,0-.14,0,.06-.04.08-.06.12-.09-.05,0-.08,0-.11,0-1.03.04-2.07.07-3.1.11-.11,0-.14-.03-.15-.13-.05-1.31-.1-2.62-.16-3.93-.02-.48-.06-.95-.09-1.42,0-.11-.06-.15-.16-.16-.23-.02-.31.06-.3.32.03.44.06.89.08,1.33.05,1.04.09,2.08.14,3.13,0,.09,0,.18-.02.28,0-.07-.02-.15-.03-.22,0,0,0,0-.01,0,0,.17.02.35.02.52,0,0,0,0,.01,0,0-.05.01-.1.02-.15,0,0,.01,0,.02,0,0,.14.01.28.02.45-.03-.04-.05-.06-.04-.05-.1.03-.18.06-.27.09-.09.03-.19.05-.31.08.06.03.08.04.11.06-.02.01-.03.02-.04.02-.19.08-.34.2-.43.39-.18.36-.12.74-.1,1.11,0,.06.24,1.49.24,1.61.03.46.06.92.12,1.37.03.28.02.56.08.85.08.38.07.78.09,1.18.04.65,0,1.31.12,1.96.07.38-.04.77.1,1.14.03.82.06,1.64.08,2.46,0,.52,0,1.04-.03,1.56,0,.2-.06.4-.1.6-.05.21-.1.42-.16.63-.05.18-.1.35-.16.52-.05.16-.1.31-.15.47-.05.14-.1.27-.14.41-.05.14-.1.29-.14.43-.05.16-.09.31-.14.47-.07.2-.14.4-.17.61-.03.22-.07.45-.16.65-.08.2-.1.4-.11.6-.02.22.09.39.25.54.08.07.14.15.27.15.02,0,.07.06.07.09,0,.53-.01,1.05,0,1.58,0,.19.01.41.1.58.1.19.16.39.22.6.01.04.06.08.09.12.03.06.05.12.07.16.07.13.14.24.2.36,0-.01.01-.03.02-.05.29.52.75.86,1.23,1.19.01-.03.02-.05.03-.08.06.07.23.17.32.22.05.02.09.07.15.1.03.02.08.04.1.02.06-.04.08-.03.1.04,0,.03.05.08.08.08.2.02.39.08.58.17.18.09.4.11.61.13.33.03.67.04,1.01.05.07,0,.11.02.12.1.02.18.05.34.19.51.16.19.33.26.55.25.26,0,.52.01.78-.01.47-.04.95-.07,1.41-.16.33-.07.65-.11.98-.14.24-.02.49-.04.73-.11.26-.07.51-.15.78-.17.38-.03.76-.05,1.14-.15.42-.11.85-.16,1.29-.16.65,0,1.31,0,1.96,0,.44,0,.88,0,1.31.14.34.1.71.1,1.07.14.27.03.55.05.82.08.04,0,.08.05.12.07.07.03.16.04.24.05.27.03.54.07.82.09.28.02.56.04.84.06.09,0,.19,0,.28.05.29.14.78.06,1-.17.13-.14.24-.3.27-.5,0-.03.02-.06.02-.07.14.01.27.04.4.04.86.02,1.72.04,2.57.03.43,0,.86-.04,1.29-.09.2-.02.39-.12.58-.16.75-.13,1.5-.02,2.25.01.06,0,.13.03.19.02.17-.02.35-.04.52-.06.28-.03.56-.04.84-.08.14-.02.3-.06.41-.14.09-.07.18-.1.28-.11.02,0,.05-.03.07-.05.05-.04.1-.08.15-.12.37-.22.63-.54.73-.95.07-.28.03-.59.04-.89Zm-12.88-6.22c.06-.09.12-.19.19-.29.12-.19.4-.32.62-.16.12.08.28.1.34.3.02-.06.02-.09.04-.13.04.04.1.07.11.11.03.09.08.12.17.14.07.02.15.03.17.14,0,.04.08.07.13.1.08.05.15.11.23.16.02.02.07.04.08.03.07-.05.09,0,.12.05.02.04.06.08.09.1.15.07.26.24.21.41-.03.11-.08.22-.13.33,0,0-.02,0-.02,0,0-.02,0-.04-.02-.09-.04.09-.07.16-.11.23-.14.23-.3.43-.47.63-.08.09-.12.22-.17.34-.03.06-.06.11-.11.2,0-.06,0-.08,0-.13-.07.13-.12.23-.17.34-.14,0-.29-.01-.44-.02,0-.01,0-.02,0-.03.04-.01.07-.03.1-.04-.18-.1-.43,0-.58-.21-.09.07-.14-.01-.2-.06-.05-.04-.11-.07-.17-.1-.02-.01-.06-.02-.07-.04-.17-.16-.34-.32-.5-.49-.11-.11-.2-.24-.29-.37-.02-.04-.02-.11,0-.15.06-.1.13-.2.19-.3.23-.33.45-.65.68-.98Zm.92,3.25c-.1.17-.18.34-.29.48-.2.26-.38.52-.55.8-.11.18-.26.34-.39.51-.07.09-.11.2-.18.29-.04.06-.1.12-.15.18-.02.02-.03.04-.05.06-.13.18-.25.36-.38.53,0,0-.02.01-.02.01-.06-.02-.11-.03-.16-.04-.02,0-.05-.01-.05-.02-.07-.18-.31-.15-.39-.31-.14.03-.18-.11-.27-.17-.11-.07-.2-.16-.31-.23-.12-.08-.25-.14-.37-.21-.04-.03-.07-.08-.11-.1-.07-.05-.15-.08-.23-.12-.18-.11-.21-.32-.08-.49.29-.41.58-.83.87-1.25.22-.31.44-.62.65-.94.08-.12.15-.24.23-.35.01-.02.04-.04.07-.07.24.39.57.65.9.93.06-.06.12-.03.15.04.04.09.1.13.2.13.05,0,.1.06.15.08.14.06.27.13.41.18.11.04.23.05.34.08Zm-5.17-6.42c.1-.14.27-.14.42-.14.16,0,.33-.01.46.14.09.11.23.18.35.26.04.03.13,0,.14.03.06.13.17.17.29.22.03.01.05.05.07.08.03.04.06.09.1.12.09.05.17.12.25.17.18.11.21.27.24.44.04.21-.07.38-.16.57,0-.03-.01-.05-.02-.09-.05.09-.08.17-.13.24-.05.07-.11.13-.17.2-.01.02-.03.03-.04.05-.14.22-.28.44-.42.66-.12.19-.17.21-.38.15-.11-.03-.22-.06-.33-.1-.02,0-.03-.06-.05-.08-.03-.03-.06-.04-.1-.06-.2-.13-.4-.27-.59-.4-.02-.01-.05-.01-.07-.02-.03-.01-.08-.03-.08-.05-.03-.15-.15-.2-.27-.27-.06-.03-.08-.12-.13-.17-.04-.04-.04-.16-.15-.1,0,0-.03-.02-.03-.03,0-.14-.15-.18-.19-.3,0-.03-.06-.04-.08-.05.13-.18.25-.35.38-.52.23-.31.46-.62.69-.92Zm.82,3.71s-.06.08-.08.12c-.02.04-.04.08-.06.14,0-.04-.01-.06-.03-.11-.04.07-.06.12-.09.17-.04.08-.07.2-.14.24-.17.09-.17.29-.29.4,0,0-.03.01-.04.02,0,0-.02-.02-.03-.03-.07.13-.14.25-.2.38,0,.01-.01.03-.02.03-.17.07-.2.25-.3.38-.18.21-.33.44-.49.67-.08.11-.24.18-.35.11-.11-.08-.21-.18-.31-.28,0,0,0,.02-.01.03-.05-.02-.1-.04-.14-.07-.05-.04-.09-.09-.14-.13-.08-.07-.16-.13-.24-.19-.02-.02-.03-.04-.05-.05-.18-.12-.35-.23-.53-.34-.17-.11-.33-.23-.49-.34-.12-.09-.14-.27-.05-.41.27-.36.54-.72.8-1.09.23-.32.46-.65.69-.97.11-.15.21-.3.33-.46-.02,0,0,0,0,0,.14,0,.2.09.27.2.06.1.16.18.24.27.03.03.06.06.09.08.07.07.14.13.21.2.02.02.04.05.07.07.29.21.58.42.88.62.1.07.25.08.37.11.11.02.18.16.12.25Zm-2.16-7.86c.04.31.09.62.11.93,0,.11,0,.23-.01.34,0,.03-.05.07-.09.08-.06.02-.14,0-.14.11,0,0-.06.02-.1.03-.42.04-.84.09-1.26.13-.04,0-.07.01-.11.02-.15.04-.28.05-.36-.12-.02-.04-.09-.06-.12-.08-.07-.06-.11-.15-.17-.23-.05-.06-.11-.12-.15-.19-.16-.24-.16-.53-.18-.81,0-.04,0-.07,0-.11,0,0-.01,0-.02,0,.04-.32.08-.64.12-.96,0-.08.04-.11.12-.11.27-.01.53-.03.8-.05.22-.02.44,0,.65-.07.21-.07.42-.03.62-.07.09-.02.13.03.14.12.05.35.11.7.16,1.05Zm-5.16,2.05s0,.02,0,.03c-.15.01-.3.03-.45.04-.51.05-1.01.1-1.52.14-.29.02-.3.03-.36-.31-.05-.28-.05-.57-.07-.86-.03-.38-.06-.75-.08-1.13-.02-.24.06-.33.29-.35.36-.03.73-.04,1.09-.07.18-.02.35-.07.52-.1.06,0,.12,0,.17,0,.67-.2,1.37-.11,2.05-.22.08-.01.16-.04.24-.05.08-.01.17-.01.23-.02-.03.23-.07.44-.07.65,0,.33.03.65.05.98,0,.03.04.06.06.09.03.06.06.13.08.2.02.06.05.12.07.18.03.08.07.13.13.19.08.06.09.2.13.3,0,0-.04.04-.07.05-.77.06-1.54.13-2.31.19-.1,0-.2.02-.33.04.06.02.09.03.12.04Zm4.51-8.95c.09,0,.21-.01.21.14,0,0,.01.03.02.03.15,0,.14.13.16.21.09.62.11,1.25.06,1.88-.02.25-.12.36-.42.37-.78.02-1.56.04-2.34.05-.1,0-.21,0-.31,0-.14.02-.21-.07-.26-.19-.01.03-.02.05-.04.1-.09-.17-.17-.33-.25-.49-.01.02-.02.04-.03.05,0,0-.01-.01-.02-.02-.03-.11-.07-.22-.1-.33-.1-.34-.02-.65.16-.93.11-.17.22-.35.34-.52.09-.13.22-.2.38-.21.41-.01.82-.02,1.23-.04.1,0,.19-.06.29-.06.3-.02.61-.03.91-.04Zm-7.95,22.61c-.23.03-.47.04-.7-.01-.05-.01-.1-.06-.16-.07-.09-.02-.18-.03-.27-.05-.25-.05-.5-.1-.76-.15-.08-.15-.25-.11-.37-.16-.12-.06-.23-.16-.34-.23-.06-.04-.13-.04-.19-.07-.07-.03-.1-.11-.2-.11-.02,0-.05-.04-.08-.07-.02-.03-.04-.06-.07-.08-.1-.1-.19-.22-.31-.28-.19-.11-.26-.3-.38-.5,0,.04,0,.06-.01.11-.07-.15-.13-.28-.19-.4-.03-.06,0-.15-.12-.16-.01,0-.03-.05-.04-.07-.11-.27-.15-.56-.18-.84-.02-.14-.03-.28-.06-.42,0,.05,0,.1,0,.15,0,0-.02,0-.02,0,0-.1,0-.21,0-.31.03-.31.08-.62.12-.93,0-.08.05-.11.12-.09.1.02.19.05.29.07.18.04.36.07.54.12.1.03.2.09.29.14.06.03.12.08.2-.02.01.15.11.16.21.17.04,0,.07.01.1.03.16.11.31.22.47.33.07.05.13.13.21.17.15.07.22.21.34.31.21.18.39.38.54.6.02.03.06.05.09.08.03.03.06.06.12.12-.05,0-.07,0-.06,0,.07.12.14.25.2.37.04.03.08.04.09.06.05.15.1.29.15.44.01.05.03.09.04.15.02-.02.04-.03.07-.07.07.31.14.61.21.9.03.1.07.2.1.3.04.12.07.24.1.36.02.08.01.12-.1.13Zm16.54-1.81c-.06.14-.08.3-.1.45-.04.28-.06.55-.11.83-.05.26-.12.52-.17.78-.01.06-.03.13-.03.19,0,.22-.19.28-.37.26-.31-.03-.61-.06-.92-.09-.16-.02-.31-.04-.47-.06.02-.03.03-.04.05-.06-.71-.08-1.41-.15-2.12-.22.02-.03.04-.05.05-.07-.42-.05-.83-.1-1.24-.14-.33-.03-.65-.05-.98-.08-.03,0-.07-.02-.1-.03-.04-.02-.07-.06-.11-.06-.58,0-1.16,0-1.74,0,0,0-.01,0-.02.01.02.02.04.03.07.05-.88.08-1.76.16-2.63.24v.02c.05,0,.1.01.15.02,0,.01,0,.03,0,.04-.63.07-1.27.15-1.9.22,0,0,0,0,0,.01.05,0,.11,0,.16.01,0,.01,0,.03,0,.04-.44.05-.88.1-1.32.14-.44.04-.89.05-1.33.08,0,0,0,.02,0,.03.06,0,.12.01.19.02,0,.01,0,.02,0,.03-.2.01-.39.02-.59.03-.19,0-.22-.03-.26-.22-.05-.23-.03-.46-.12-.68-.07-.18-.08-.38-.11-.58-.04-.21-.07-.42-.12-.63,0-.02-.04-.04-.07-.08-.01-.05,0-.16-.05-.21-.14-.16-.06-.39-.23-.55-.1-.1-.12-.29-.18-.43-.01-.03-.03-.07-.05-.1-.07-.1-.18-.19-.2-.29-.04-.14-.14-.22-.22-.33-.08-.1-.18-.18-.26-.28-.11-.15-.23-.28-.37-.39-.07-.06-.14-.13-.21-.19-.04-.04-.09-.08-.13-.13-.03-.03-.05-.06-.09-.09-.12-.08-.25-.15-.36-.24-.17-.13-.36-.23-.56-.31-.2-.08-.42-.12-.62-.17-.05-.01-.13-.03-.13-.05,0-.12-.1-.1-.15-.11-.41-.06-.82-.11-1.23-.16-.04,0-.1-.03-.11-.07-.03-.08-.05-.17-.04-.26.01-.17.03-.34.07-.5.05-.21.14-.4.19-.61.08-.38.17-.75.31-1.11.11-.28.16-.57.28-.85.1-.21.14-.45.2-.68.05-.16.11-.33.14-.49.05-.25.1-.5.13-.75.05-.36.09-.72.11-1.09.02-.43,0-.87,0-1.3h-.04v.83h-.03s0-.09,0-.14c0-.71,0-1.41-.02-2.12,0-.15,0-.3-.02-.45-.02-.18-.06-.35-.07-.53-.04-.81-.07-1.62-.11-2.42,0-.14-.02-.29-.04-.47-.02.05-.03.07-.04.08-.02-.36-.06-.71-.09-1.06-.04-.56-.07-1.11-.1-1.67-.01-.21-.03-.43-.04-.64h0s0-.01,0-.01c0-.08,0-.17-.02-.25,0-.03-.02-.03-.02-.05-.09-.6-.3-1.73-.22-2,.02-.05.03-.1.06-.17.02.05.02.08.03.11.02-.19.21-.15.33-.23-.05-.02-.07-.04-.11-.06.02,0,.03-.02.05-.02.27-.01.56-.09.81-.02.27.08.52.06.77.06.27,0,.55,0,.82-.02.06,0,.12,0,.19,0,.07,0,.14.02.21.03.22.02.45,0,.68,0,.48,0,.97-.08,1.45-.1.89-.03,1.78-.03,2.68-.04.08,0,.16,0,.24,0,.09,0,.18,0,.26,0,.27,0,.54,0,.81,0,.28,0,.55,0,.82-.02.26-.02.51,0,.77-.1.24-.09.53-.02.81-.02.01,0,.03,0,.05.02-.04.02-.06.04-.11.06.12.07.31.03.34.22,0-.03.01-.05.03-.11.03.07.05.12.07.17.12.35.06.71.07,1.06,0,.02-.05.06-.07.06-.39.03-.77.06-1.16.08-.89.03-1.78.05-2.67.08-.43.01-.87.02-1.32.03.04.03.06.05.08.07-.03.01-.04.02-.06.02-.03,0-.07,0-.1,0-.74.01-1.48-.04-2.21.08-.11.02-.23.01-.34.03-.2.03-.39.08-.43.32,0,.03-.05.06-.08.09-.02,0-.03.02-.03.03,0,.51-.04,1.01.05,1.52.05.3.04.61.06.92.01.17.02.33.18.46.17.15.34.23.55.23.32,0,.64-.03.96-.04.03,0,.09-.01.1-.03.04-.08.1-.07.17-.07.73-.03,1.47.04,2.21-.07.55-.09,1.11-.05,1.67-.07.73-.02,1.45-.03,2.18-.05.05,0,.09-.02.14-.03,0,0,0-.02,0-.03-.09,0-.18-.01-.27-.02,0,0,0,0,0,0h.49s-.06.03-.12.08c.26.01.19.18.19.3.01.39.02.77.03,1.16,0,.04,0,.08.01.12h.02s.01-.07.02-.13c.01.15.03.28.04.4,0,.19,0,.19-.18.22-.04,0-.09.01-.13.02-.36.03-.72.05-1.1.08.04.03.06.04.11.08-.9.08-1.77.15-2.64.22,0,0,0,.01,0,.02.04,0,.07.02.11.03,0,0,0,.02,0,.03-.85.07-1.71.15-2.59.22.06.02.09.03.12.05-.17.03-.33.05-.49.05-.24,0-.45.08-.65.19-.02.01-.04.06-.03.08.03.07,0,.09-.06.1-.02,0-.06.03-.06.05-.02.07-.05.14-.04.21.02.52,0,1.05.13,1.57.06.22,0,.47.09.7.07.19.03.4.23.56.2.16.41.24.66.2.34-.06.68-.14,1.02-.2.21-.03.42-.04.63-.06.27-.02.55-.04.82-.05.27,0,.52-.13.79-.11.02,0,.04,0,.06-.01.15-.03.29-.08.44-.09.34-.03.67-.04,1.01-.07.34-.03.67-.08,1-.13.11-.02.22-.08.33-.09.2-.02.41-.01.61-.03.12-.01.13.04.14.14.04.41.02.83.18,1.22.07.18.13.38.31.5.05.03.08.08.12.12.05.04.1.07.15.1.03.02.08.05.08.07-.03.1-.06.21-.1.31,0,0-.02,0-.03.01,0-.04.01-.06.02-.09,0,0-.02,0-.02,0-.08.14-.16.29-.23.41-.16.05-.14.21-.22.29-.07.08-.15.16-.22.26-.07.1-.12.22-.18.33,0,0-.02,0-.02-.01,0-.02,0-.04,0-.06-.04.03-.06.07-.08.12-.05.1-.1.2-.16.29-.04.06-.11.1-.15.16-.13.18-.25.36-.37.54-.11.17-.23.34-.34.5-.02.02-.03.07-.05.07-.15.03-.14.18-.21.27-.04.06-.08.13-.12.2,0,0-.01,0-.02,0,0-.03.01-.06.02-.08-.05.05-.08.1-.11.16-.03.05-.05.12-.09.14-.13.08-.18.23-.26.35-.03.05-.07.11-.12.15-.11.1-.12.24-.11.36.01.12-.03.29.15.35.02,0,.02.04.04.06.05.06.09.15.15.18.16.08.24.27.44.29.02,0,.03.03.05.04.08.07.16.14.25.21.06.05.13.1.18.14.03,0,.1-.01.1,0,.06.14.19.19.31.24.02,0,.03.05.05.07.07.05.14.11.21.16.03.02.06.03.08.05.19.25.47.29.75.29.21,0,.38-.06.51-.25.32-.47.67-.92,1.01-1.38.32-.44.64-.89.96-1.33.39-.53.77-1.07,1.16-1.61.06-.08.12-.09.2-.03.19.12.37.25.56.37.03.02.06.02.09.04.07.05.14.11.21.16.01,0,.02.02.04.03.01-.03.03-.05.04-.07.14.1.19.23.11.36-.05.08-.09.16-.14.24,0,0-.02.01-.03.03,0-.04.01-.07.02-.09-.12.17-.24.35-.37.52-.08.11-.17.22-.25.33-.02.02-.04.05-.05.07-.07.15-.15.31-.23.49v-.13c-.05.06-.08.13-.12.2-.04.07-.06.16-.12.19-.11.06-.14.16-.18.26-.01.03-.02.06-.05.07-.23.15-.25.45-.46.63-.16.13-.24.35-.36.54-.05.08-.07.19-.14.23-.13.09-.16.23-.23.35-.03.06-.07.11-.12.18,0-.04,0-.07,0-.11-.09.18-.16.33-.24.49-.02-.03-.03-.05-.04-.07-.21.36-.13.85.35,1.04.03,0,.05.03.07.05.05.05.1.11.16.15.11.07.23.11.28.24,0,0,.02,0,.03,0,0-.03.02-.05.03-.1.04.04.08.07.09.1.02.1.09.11.16.14.06.02.11.06.15.09.07.05.13.12.19.17.04.04.09.06.14.09.06.04.12.07.17.1.07.04.14.09.21.14.02.01.05.02.07.03.25.16.66.09.84-.14.15-.19.29-.39.42-.59.27-.39.54-.78.81-1.18.21-.31.43-.61.64-.92.2-.28.39-.56.58-.85.19-.28.38-.56.57-.84.11-.16.21-.33.31-.49.09.02.2.04.31.06.01,0,.04.02.04.03.02.14.12.13.22.14.03,0,.06.01.08.03.12.17.32.22.49.3.05.02.09.07.12.11.1.2.02.51-.17.66,0-.02-.01-.03-.02-.06-.02.04-.03.07-.05.1-.05.11-.07.25-.16.32-.12.1-.14.23-.2.35-.04.08-.06.17-.11.23-.11.13-.14.29-.19.45-.02.08-.07.15-.1.22-.05.13-.11.26-.15.4-.06.18-.12.36-.17.55-.04.14-.09.28-.13.42-.06.25-.07.51-.18.75ZM9.6,9.86c.06.24.14.48.25.71,0-.02,0-.04.01-.08.05.11.1.21.16.32-.03,0-.07.02-.1.02-.16,0-.32.01-.48.02-.68.04-1.36.09-2.05.12-.57.02-1.13.03-1.7.04-.2,0-.24-.04-.24-.23,0-.18,0-.37-.02-.55-.03-.41-.07-.82-.09-1.24,0-.14.02-.27.04-.41,0-.08.06-.09.14-.11,1.14-.17,2.29-.13,3.44-.15.29,0,.58-.01.87-.03.05,0,.1-.05.15-.08.05.09-.02.29-.13.36-.03.02-.06.05-.07.08-.07.26-.15.52-.2.79-.02.13-.02.27.01.4Zm22.43,19.23c-.03.13-.08.26-.12.38-.04.12-.12.21-.22.29-.1.08-.23.12-.32.19-.09.08-.15.15-.27.13-.16.19-.42.09-.62.19.03.01.05.02.1.05-.15.02-.27.04-.39.04-.48,0-.97,0-1.45,0-.52,0-1.04,0-1.56.03-.49.03-.97.1-1.46.16-.01,0-.03,0-.07.02.06.02.09.03.13.04,0,0,0,.02,0,.03-.1,0-.2.02-.3.02-.36,0-.72,0-1.08,0-.13,0-.25.01-.38.02-.25.02-.49-.01-.73-.1-.12-.04-.26-.04-.39-.05-.2-.01-.41-.02-.62-.02-.09,0-.12-.03-.09-.12.06-.23.12-.45.17-.68.05-.22.06-.44.12-.65.07-.31.17-.6.24-.91.07-.29.12-.58.26-.84.05-.09.05-.21.09-.3.14-.34.29-.67.43-1,.01-.03.03-.05.04-.08.04-.11.14-.14.23-.07.16.13.35.22.56.26.04,0,.09.02.11.05.15.16.36.18.56.22.03,0,.06,0,.08.02.23.19.51.24.8.28.07,0,.13.06.2.08.21.07.42.14.63.19.22.04.44.05.66.16.16.09.38.12.57.12.29,0,.52.14.78.23.3.11.57.26.87.37.08.03.17,0,.24.04.51.29,1.07.24,1.61.27.04,0,.09,0,.12.01.07.03.12.07.21.12.09-.06.13.02.17.12.01.03.05.05.1.06.06.2.06.42.01.63Z"/></g></svg>