<?xml version="1.0" encoding="UTF-8"?><svg id="Capa_2" xmlns="http://www.w3.org/2000/svg" viewBox="0 0 35.91 31.54"><defs><style>.cls-1{fill:#8a5081;}</style></defs><g id="Capa_1-2"><path class="cls-1" d="m35.84,20.36c-.05-1.18-.12-2.37-.39-3.52-.46-1.95-.93-3.89-1.4-5.84-.07-.3-.13-.61-.22-.9-.08-.26-.22-.5-.3-.77-.18-.61-.34-1.22-.5-1.83-.03-.09-.07-.19-.07-.28.01-.4-.14-.76-.29-1.13-.09-.23-.19-.46-.25-.7-.16-.61-.31-1.23-.43-1.84-.16-.79-.29-1.58-.41-2.37-.04-.3-.02-.6-.03-.91,0-.21-.14-.27-.32-.28-.17,0-.3.05-.31.25,0,.25-.01.5.01.74.12,1.26.28,2.51.75,3.7.02.06.03.12.04.18.16.79.32,1.57.72,2.29.04.06.05.14.06.22.03.24.04.49.1.73.08.35.19.69.3,1.03.08.25.2.49.27.75.12.46.22.93.32,1.4.01.05.03.09.04.14.34,1.44.7,2.88,1.03,4.33.19.84.41,1.68.49,2.53.13,1.4.15,2.82.23,4.22.04.76-.51,1.4-1.33,1.47-.15.01-.21-.04-.23-.18-.03-.24-.07-.48-.1-.71-.15-1.1-.3-2.19-.45-3.29-.03-.25-.22-.36-.46-.28-.23.08-.18.27-.16.44.08.65.18,1.29.26,1.94.13,1.07.26,2.14.38,3.21.11.97-.72,1.7-1.53,1.72-.12,0-.19-.02-.2-.16-.16-1.16-.32-2.32-.49-3.47-.06-.39-.1-.79-.17-1.18-.04-.21-.18-.31-.35-.27-.22.05-.29.15-.26.39.01.09.03.18.04.26.19,1.38.38,2.75.57,4.13.04.32.14.65,0,.97-.34.75-.92,1.16-1.74,1.23-.2.02-.28-.04-.31-.24-.19-1.28-.39-2.56-.58-3.83-.07-.43-.13-.86-.21-1.28-.01-.07-.08-.17-.15-.19-.27-.09-.46.07-.43.34.04.4.1.79.15,1.19.21,1.37.42,2.74.63,4.12.02.17.03.35-.01.51-.15.66-.81,1.16-1.44,1.14-.59-.02-1.37-.53-1.44-1.27-.11-1.2-.27-2.39-.41-3.59-.09-.82-.18-1.64-.28-2.46-.03-.28-.29-.41-.51-.26-.15.1-.13.26-.11.41.23,1.96.46,3.92.68,5.88.02.14,0,.32-.06.44-.19.34-.45.62-.78.84-.63.41-1.34.47-2.07.42-.66-.04-1.24-.28-1.69-.76-.6-.63-.88-1.41-1-2.25-.08-.59-.06-1.21-.05-1.81.01-.67.05-1.35.11-2.02.09-1.08.08-2.16.02-3.24-.04-.72-.12-1.45-.18-2.21.09.02.15.02.2.04.25.1.5.2.74.29.66.25,1.33.45,2.05.36.52-.07,1.03-.18,1.3-.7.18-.33.27-.68.26-1.07-.01-.32,0-.64.02-.96,0-.06,0-.12,0-.18-.03-.52-.18-1-.43-1.45-.17-.3-.16-.68-.42-.93-.07-.06-.12-.14-.17-.21.41-.19.83-.34,1.21-.55.97-.56,1.63-1.4,2.09-2.4.06-.13.08-.28.1-.42.04-.2.05-.41.1-.61.09-.35.04-.67-.23-.92-.16-.14-.32-.28-.51-.39-1.14-.66-2.37-.9-3.67-.65-.26.05-.52.11-.79.17,0-.13.03-.24.02-.34-.07-1.71-.78-3.08-2.22-4.02-.75-.49-1.26-.45-1.93.14-1.11.99-1.69,2.25-1.76,3.74,0,.11-.01.21-.02.33-1-.37-1.98-.45-2.99-.18-.89.24-1.68.64-2.28,1.36-.2.25-.28.52-.22.85.2,1.03.82,1.8,1.56,2.49.51.47,1.12.77,1.76,1.02.15.06.16.11.05.23-.13.15-.25.31-.35.48-.4.69-.61,1.44-.64,2.24-.03.81.12,1.59.5,2.31.18.34.45.58.85.65.72.12,1.37-.15,2.03-.34.49-.14.91-.45,1.31-.77.06-.05.13-.08.19-.13.02,0,.04.02.07.02,0,.18,0,.36,0,.54,0,.78-.02,1.57-.01,2.35,0,.38.03.76.06,1.13.06.71.14,1.42.2,2.13.05.51.07,1.03.14,1.54.11.85.09,1.69-.16,2.51-.23.77-.58,1.45-1.29,1.9-.55.34-1.16.36-1.77.38-.81.03-1.47-.28-2.01-.87-.2-.22-.33-.45-.29-.76.04-.31.06-.63.08-.95.11-1.65.22-3.3.32-4.94.02-.23-.12-.43-.31-.43-.19,0-.33.15-.35.39-.07,1.06-.14,2.13-.21,3.19-.06.94-.11,1.88-.17,2.82-.01.19-.05.39-.13.55-.3.6-1.03.92-1.7.74-.55-.14-1.11-.68-1.05-1.43.03-.43.08-.86.12-1.29.09-.94.19-1.89.28-2.83.04-.44.09-.89.12-1.34.01-.14,0-.29-.22-.31-.25-.02-.36.03-.41.24-.03.12-.02.25-.04.37-.16,1.62-.32,3.24-.48,4.87-.01.11-.04.16-.16.16-.34,0-.67-.05-.98-.2-.55-.26-1.13-.86-1.05-1.6.1-.94.18-1.89.27-2.84.06-.63.12-1.26.17-1.89.02-.24-.1-.39-.27-.4-.19-.01-.36.14-.38.36-.01.11-.01.22-.02.33-.08.85-.15,1.7-.23,2.55-.05.58-.11,1.16-.16,1.75-.02.17-.1.23-.26.19-.03,0-.07-.01-.1-.02-.73-.1-1.5-.71-1.45-1.67.06-1.04.14-2.09.21-3.13.05-.71.13-1.43.18-2.14.02-.23-.1-.34-.33-.33-.21,0-.29.09-.32.35-.08.86-.15,1.73-.22,2.59-.03.42-.06.84-.09,1.26-.03.33-.11.38-.42.32-.82-.16-1.21-.62-1.22-1.46-.01-.83-.04-1.65-.03-2.48,0-.78,0-1.56.11-2.33.14-1.12.34-2.24.56-3.35.49-2.46,1.01-4.92,1.54-7.37.36-1.67.87-3.31,1.02-5.03.05-.57.05-1.15.07-1.73,0-.19-.12-.32-.3-.33-.2-.01-.29.11-.32.28-.02.11-.03.22-.02.33.03.97-.06,1.93-.26,2.87-.25,1.18-.53,2.36-.81,3.54-.69,2.96-1.3,5.94-1.83,8.93C.17,17.37,0,18.57,0,19.79c0,1.01.01,2.02.02,3.04,0,.12.01.25.03.37.09.89.95,1.72,1.8,1.74.39,0,.4.01.39.41-.02.61.18,1.14.57,1.59.44.52,1.03.74,1.7.77.13,0,.23.04.29.17.51,1.03,1.32,1.6,2.5,1.56.15,0,.21.04.26.18.51,1.37,1.99,1.86,3.18,1.07.23-.15.41-.36.68-.59.03.05.05.13.1.18.49.51,1.08.87,1.79.95.47.05.95.04,1.42,0,.93-.08,1.68-.53,2.2-1.29.68-1,.96-2.14.9-3.33-.04-.95-.15-1.91-.31-2.85-.16-.98-.23-1.97-.21-2.96.03-1.04.05-2.08.08-3.11,0-.1,0-.21.02-.31.02-.07.07-.14.1-.21.07.05.16.08.21.14.16.18.31.37.45.56.06.08.11.17.12.26.06.56.1,1.12.15,1.68.05.59.13,1.17.14,1.76.01.46-.05.93-.07,1.4-.05,1.04-.08,2.08-.16,3.11-.1,1.13.04,2.22.48,3.27.41.98,1.06,1.69,2.08,2.04.47.16.95.13,1.43.14,1.01.01,1.83-.39,2.49-1.13.04-.05.07-.1.12-.16.09.08.17.13.23.19.49.48,1.06.71,1.76.66.88-.07,1.57-.7,1.81-1.57.03-.12.09-.15.2-.16,1.1-.01,1.9-.52,2.38-1.49.15-.31.34-.39.64-.43,1.05-.13,1.87-1.07,1.87-2.14,0-.22,0-.44,0-.66.07-.01.12-.03.18-.03,1.05-.06,1.97-.97,1.9-2.16-.04-.7-.04-1.4-.06-2.1Zm-11.45-11.55c.28.12.54.28.78.45.1.07.18.22.19.34.02.19.03.39-.03.57-.47,1.48-1.4,2.51-2.94,2.94-.24.07-.43.03-.62-.16-.64-.63-1.36-1.14-2.23-1.39-.44-.13-.88-.13-1.33-.05-.05,0-.09.02-.14.02-.03,0-.05,0-.1,0,.05-.6.33-1.06.72-1.47,1.28-1.31,3.63-2.13,5.68-1.25Zm-8.54-2.75c.3-.75.75-1.39,1.39-1.89.28-.22.56-.23.86-.04.84.51,1.43,1.22,1.8,2.13.23.57.3,1.14.27,1.74-.01.23-.11.39-.33.49-.71.35-1.36.78-1.84,1.43-.33.44-.56.91-.62,1.46,0,.08-.03.16-.05.27-.4-.13-.67-.39-.91-.69-.48-.6-.73-1.31-.83-2.06-.13-.97-.11-1.92.26-2.84Zm-4.83,5.54c-.4-.42-.73-.89-.93-1.45-.13-.35-.08-.66.22-.91.74-.64,1.6-.96,2.58-1.01.64-.03,1.26.07,1.85.33.15.06.19.15.21.29.11.88.39,1.7.92,2.42.3.41.68.74,1.14.96.06.03.12.06.21.11-.31.34-.67.54-1.07.67-.65.22-1.31.21-1.98.12-1.21-.17-2.29-.62-3.15-1.53Zm3.76,6.88c-.46.17-.93.25-1.42.24-.27,0-.44-.11-.56-.34-.35-.68-.43-1.4-.38-2.15.06-.85.37-1.61.91-2.28.16-.19.32-.26.57-.21.72.15,1.45.12,2.17-.03.62-.13,1.14-.46,1.59-.91.04-.04.07-.1.11-.18.22.31.3.59.35.89.1.71-.09,1.37-.36,2-.6,1.39-1.54,2.43-2.98,2.97Zm3.31-1.77c-.09-.14-.08-.26,0-.4.27-.53.51-1.08.61-1.68.1-.63.12-1.25-.1-1.85-.05-.15-.14-.28-.22-.42-.1-.18-.06-.25.14-.26.84-.06,1.55.26,2.2.75.71.54,1.26,1.21,1.7,1.99.23.41.41.82.52,1.27.05.2.06.41.06.61,0,.5-.02,1-.16,1.49-.1.34-.22.45-.57.48-.18.01-.36.02-.59.03-.65-.02-1.35-.08-1.96-.45-.65-.4-1.24-.89-1.64-1.57Z"/><path class="cls-1" d="m22.63,26.76c-.25,0-.5,0-.74,0h0c-.25,0-.5,0-.74,0-.63.02-1.06.48-1.05,1.11,0,.36.02.73.03,1.09.02.65.5,1.14,1.15,1.13.55,0,1.1-.03,1.65-.08.64-.05,1.05-.51.99-1.15-.04-.45-.14-.91-.27-1.35-.13-.47-.53-.74-1.02-.76Zm.35,2.81c-.58.04-1.17.06-1.75.08-.38,0-.61-.17-.65-.55-.05-.46-.05-.93-.05-1.4,0-.24.22-.45.49-.49.29-.04.59-.04.88-.06,0,.01,0,.02,0,.04.25,0,.51-.02.76,0,.35.03.56.23.63.58.07.36.15.73.22,1.09.07.36-.17.69-.53.71Z"/><path class="cls-1" d="m14.21,29.78s0-.01,0-.02c.3,0,.61.02.91,0,.54-.04.88-.33.94-.86.05-.45,0-.9.02-1.36.03-.66-.52-1.1-1.1-1.07-.54.03-1.08.05-1.62.11-.38.04-.69.24-.78.61-.13.48-.22.97-.26,1.46-.06.67.39,1.12,1.07,1.14.27,0,.55,0,.83,0Zm-1.46-1.02c.03-.46.1-.92.2-1.36.06-.3.31-.45.62-.46.49-.02.99-.03,1.49-.04.36,0,.59.23.61.59.01.31.03.62.04.93,0,.16,0,.33-.04.49-.07.32-.21.44-.54.46-.3.02-.6,0-.91,0,0,0,0,0,0,0-.29,0-.58,0-.87,0-.34-.01-.61-.27-.59-.61Z"/><path class="cls-1" d="m25.83,28.84c0,.19,0,.38.03.57.04.24.21.4.46.43.08,0,.16,0,.25,0h0c.18,0,.36-.01.53-.03.4-.05.61-.23.59-.57,0-.22-.05-.46-.14-.65-.06-.13-.24-.28-.37-.27-.36.01-.72.09-1.07.16-.17.04-.27.19-.28.37Zm.56-.22c.22-.04.45-.07.67-.1.17-.02.29.06.34.21.05.18.09.38.09.56,0,.18-.16.24-.31.28-.17.04-.35.04-.53.06-.5,0-.58-.08-.58-.59,0-.3.04-.36.33-.42Z"/><path class="cls-1" d="m29.6,28.04c.13-.03.38-.07.63-.14.09-.03.18-.13.22-.22.14-.3.09-.6-.03-.9-.11-.26-.26-.37-.54-.34-.22.02-.45.06-.67.12-.23.05-.39.23-.4.42,0,.17,0,.34.02.51.05.4.24.55.77.55Zm-.35-1.25c.2-.06.4-.09.6-.13.2-.02.31.08.36.25.04.12.08.24.09.36.03.21-.05.37-.27.42-.19.04-.37.09-.56.13-.04,0-.09.02-.12,0-.3-.1-.28-.38-.32-.62-.03-.19.02-.35.22-.41Z"/><path class="cls-1" d="m8.93,29.73c.21.05.43.07.65.11v-.03c.05,0,.1,0,.15,0,.49,0,.68-.18.71-.65,0-.07,0-.14,0-.21,0-.33-.22-.59-.55-.63-.24-.03-.48-.05-.72-.06-.27-.01-.44.1-.5.36-.05.21-.08.42-.09.63-.01.23.12.42.35.48Zm-.07-1.01c.05-.18.2-.26.39-.23.22.03.44.04.65.07.23.04.3.14.31.37.02.6-.05.67-.72.65-.23-.02-.49.05-.66-.19-.16-.23-.04-.45.02-.67Z"/><path class="cls-1" d="m6.01,28.03c.2.06.42.08.62.12.48-.01.63-.13.71-.6.01-.09.03-.18.04-.26.05-.25-.14-.62-.47-.64-.18-.01-.37-.05-.55-.08-.29-.04-.54.1-.62.38-.05.18-.07.36-.09.55-.03.27.1.46.35.53Zm0-1.12s.11-.08.17-.09c.1-.01.21,0,.31,0v.02c.08,0,.17-.01.25,0,.11.02.24.05.32.11.23.18.09.42.04.63-.03.16-.1.33-.31.32-.23-.02-.47-.03-.69-.1-.1-.03-.21-.19-.21-.28,0-.21.07-.42.13-.62Z"/><path class="cls-1" d="m3.19,25.38c0,.08,0,.15,0,.25-.04.59.04.69.64.8.01,0,.03,0,.04,0,.35.06.59-.12.61-.48.01-.21.01-.41.01-.62,0-.17-.08-.29-.26-.33-.21-.04-.42-.08-.63-.09-.29,0-.44.17-.42.46Zm.87-.17c.12.01.21.07.19.22,0,.06,0,.12,0,.19h0s0,.05,0,.08c-.01.51-.08.56-.57.45-.16-.04-.27-.12-.26-.29,0-.18.02-.37.03-.55,0-.03,0-.06.03-.08.19-.15.4-.03.59-.02Z"/><path class="cls-1" d="m32.18,26.19c.6-.07.72-.21.73-.81.01-.64-.09-.74-.73-.68-.56.05-.61.11-.59.68,0,.13,0,.26.02.39.05.35.21.47.57.43Zm-.19-1.23c.53-.16.72-.02.73.54-.04.11-.05.28-.13.32-.18.09-.39.13-.59.17-.03,0-.11-.1-.12-.16-.04-.2-.05-.41-.08-.61-.02-.14.04-.21.18-.25Z"/><path class="cls-1" d="m1.73,22.54c-.22-.06-.44-.02-.57.17-.11.16-.17.36-.25.54.05.26.07.5.32.63.22.11.57.04.74-.14.19-.21.17-.47.16-.72-.01-.24-.16-.41-.39-.47Zm.14.91c-.05.17-.22.27-.4.25-.19-.03-.28-.13-.27-.32,0-.08,0-.15,0-.23,0-.26.15-.42.36-.41.25.01.37.16.37.42-.02.09-.02.19-.05.28Z"/><path class="cls-1" d="m34.27,23.55c.46.1.75-.16.71-.63,0-.06,0-.12,0-.18-.03-.37-.25-.59-.59-.57-.35.01-.52.22-.52.6,0,.1,0,.19,0,.29.02.25.18.45.4.5Zm.09-1.16c.2-.01.38.15.4.38,0,.08,0,.17,0,.25-.01.21-.12.32-.32.33-.2.01-.32-.07-.36-.28-.02-.08-.02-.16-.03-.25-.02-.24.11-.42.3-.44Z"/></g></svg>