<?xml version="1.0" encoding="UTF-8"?><svg id="Capa_2" xmlns="http://www.w3.org/2000/svg" viewBox="0 0 27.95 32.59"><defs><style>.cls-1{fill:#8a5081;}</style></defs><g id="Capa_1-2"><path class="cls-1" d="m27.76,5.69c-.23-1.6-.74-3.11-1.91-4.3-1.97-2.01-5-1.82-6.65.45-.49.68-.9,1.45-1.2,2.23-1.08,2.88-1.87,5.78-1.56,8.96.25,2.6-.65,5.1-1.34,7.6-.33,1.2-.58,2.47-.6,3.71-.04,2.36,1.46,3.82,3.87,4,2.39.18,4.13-1.08,4.56-3.35.14-.71.17-1.44.31-2.15.55-2.66,1.57-5.14,2.84-7.53,1.21-2.29,1.87-4.73,1.87-7.34-.06-.76-.08-1.53-.19-2.29Zm-10.3,4.91c1.46.98,2.23,2.28,2.12,3.96-.11,1.72-.79,3.25-1.94,4.53-.28.31-.65.52-1.06.73.75-3.05,1.32-6.07.89-9.22Zm7.66,4.22c-1.44,2.75-2.6,5.59-3.08,8.68-.08.49-.09.99-.21,1.47-.4,1.65-1.71,2.5-3.46,2.3-1.81-.21-2.77-1.2-2.81-2.95-.01-.58.05-1.16.13-1.73.11-.83.28-1.54,1.34-1.78.92-.21,1.56-.99,2.07-1.8,1.15-1.84,1.93-3.77,1.41-6-.35-1.48-1.28-2.57-2.47-3.47-.17-.13-.37-.44-.33-.61.43-2.05.96-4.07,2.01-5.91,1.66-2.94,4.88-2.19,6.14.19.8,1.52.98,3.14.99,5.52.03,1.71-.6,3.96-1.72,6.09Z"/><path class="cls-1" d="m12.18,22.54c-.48-1.95-.88-3.92-.71-5.95.06-.72.11-1.45.05-2.16-.2-2.27-.88-4.43-1.76-6.51-.4-.93-.97-1.86-1.69-2.56-1.89-1.85-5-1.35-6.58.96C.25,8.1,0,10.14,0,12.85c-.06,2.01.64,4.43,1.84,6.73,1.5,2.88,2.73,5.85,3.05,9.13.25,2.54,2.15,4.12,4.69,3.86,2.28-.23,3.56-1.42,3.83-3.61.07-.53.09-1.09-.03-1.61-.36-1.61-.82-3.2-1.21-4.81Zm-.76,1.42c-1.39-.13-2.86-3.05-3.05-4.74-.21-1.86.7-3.79,2.22-4.45-.56,3.19,0,6.2.83,9.19Zm.82,5.44c-.23.91-.79,1.53-1.68,1.85-2.46.88-4.31-.28-4.61-2.87-.38-3.35-1.62-6.4-3.17-9.36-1.13-2.15-1.75-4.42-1.7-6.86.03-1.5.13-2.98.79-4.37.49-1.02,1.16-1.85,2.27-2.25,1.34-.48,2.63-.18,3.52.94.43.55.85,1.15,1.08,1.8.55,1.54.98,3.12,1.46,4.68.1.34.05.55-.26.78-2.63,1.96-3.36,4.46-2.11,7.5.39.96.99,1.86,1.59,2.71.49.68,1.22,1.1,2.06,1.31.17.04.39.2.44.35.39,1.23.65,2.49.33,3.79Z"/><path class="cls-1" d="m19.65,22.86c-.03-.26-.29-.5-.45-.75-.09,0-.18,0-.27-.01-.18.24-.51.48-.5.71,0,.24.31.59.55.66.39.11.71-.19.66-.6Z"/><path class="cls-1" d="m21.26,18.09c-.09.4.22.71.62.64.26-.04.48-.33.9-.64-.42-.29-.68-.61-.9-.59-.23.02-.56.34-.62.59Z"/><path class="cls-1" d="m22.62,14.6c-.17.23-.44.45-.49.71-.09.41.22.72.6.66.24-.04.56-.37.6-.61.03-.22-.27-.49-.42-.74-.1,0-.19-.01-.29-.02Z"/><path class="cls-1" d="m22.62,12.24c-.41-.06-.71.25-.61.65.06.24.39.56.63.58.22.02.47-.31.71-.48,0-.09,0-.18,0-.27-.24-.17-.46-.44-.72-.48Z"/><path class="cls-1" d="m22.03,9.66c-.38-.06-.7.25-.62.66.05.26.33.47.5.71.1,0,.19,0,.29,0,.15-.25.46-.52.42-.74-.04-.24-.36-.58-.6-.62Z"/><path class="cls-1" d="m23.5,7.69c-.23.03-.57.36-.61.6-.07.38.22.71.64.62.26-.06.48-.33.72-.51,0-.09,0-.17,0-.26-.25-.16-.51-.48-.74-.45Z"/><path class="cls-1" d="m20.66,20.02c-.25.04-.58.35-.63.58-.04.21.25.49.4.75.1,0,.19.01.29.02.19-.23.48-.43.54-.68.09-.4-.2-.73-.6-.67Z"/><path class="cls-1" d="m23.42,4.3c.4.04.71-.27.59-.67-.07-.24-.4-.55-.63-.57-.22-.02-.46.31-.69.49,0,.09,0,.19,0,.28.24.16.47.44.73.46Z"/><path class="cls-1" d="m24.37,6.35c.06.24.41.54.64.56.23.01.47-.31.88-.62-.43-.29-.66-.57-.92-.6-.39-.04-.71.26-.6.66Z"/><path class="cls-1" d="m20.88,7.86c.04.24.36.58.59.61.22.03.49-.27.74-.42,0-.09,0-.18.01-.27-.23-.18-.44-.46-.7-.52-.41-.1-.72.21-.65.6Z"/><path class="cls-1" d="m16.71,24.76c.05.24.39.55.62.57.22.02.47-.29.71-.45,0-.09,0-.19,0-.28-.24-.17-.46-.44-.72-.48-.41-.06-.7.26-.62.64Z"/><path class="cls-1" d="m22.96,6.51c.26-.03.48-.31.72-.47,0-.1,0-.19,0-.29-.23-.17-.48-.48-.7-.46-.23.02-.56.32-.63.56-.1.39.19.71.6.66Z"/><path class="cls-1" d="m21.67,5.58c0-.1,0-.19,0-.29-.24-.16-.47-.41-.72-.44-.41-.06-.7.26-.59.65.07.24.4.54.63.55.22.02.46-.3.69-.47Z"/><path class="cls-1" d="m19.66,24.62c-.4-.01-.66.25-.61.61.03.26.28.49.43.74.1,0,.2,0,.3.01.17-.23.44-.44.49-.69.08-.41-.2-.65-.61-.67Z"/><path class="cls-1" d="m6.97,10.27c.22.03.49-.27.73-.43,0-.09,0-.19,0-.28-.23-.18-.45-.46-.71-.51-.41-.08-.72.24-.64.63.04.24.37.56.61.6Z"/><path class="cls-1" d="m2.97,9.92c-.37-.09-.71.19-.65.61.04.26.29.49.45.74.1,0,.19,0,.29.01.17-.24.48-.49.46-.71-.02-.24-.32-.59-.56-.65Z"/><path class="cls-1" d="m4.49,8.53c.26-.03.49-.3.74-.47v-.28c-.23-.18-.47-.51-.7-.49-.24.02-.58.33-.64.57-.1.38.19.72.6.67Z"/><path class="cls-1" d="m6.5,14.55c.02-.42-.22-.71-.62-.67-.25.03-.48.3-.72.46v.29c.23.17.44.44.69.49.36.07.63-.18.65-.57Z"/><path class="cls-1" d="m4.93,9.5c-.24.06-.56.39-.58.62-.02.23.3.48.47.72.09,0,.18,0,.27,0,.17-.24.45-.47.49-.73.06-.4-.25-.71-.65-.61Z"/><path class="cls-1" d="m8.28,27.03c-.11.39.18.71.59.66.26-.03.48-.3.72-.46,0-.1,0-.19,0-.29-.23-.17-.48-.5-.69-.48-.23.02-.56.32-.63.57Z"/><path class="cls-1" d="m6.77,22.21c-.23-.17-.47-.5-.69-.48-.24.02-.57.32-.64.56-.11.39.19.71.59.67.26-.03.49-.3.73-.46,0-.09,0-.19.01-.28Z"/><path class="cls-1" d="m5.34,16.47c-.39-.1-.7.2-.65.61.04.26.3.49.46.74.09,0,.18,0,.27,0,.17-.24.5-.49.48-.71-.01-.23-.32-.58-.56-.64Z"/><path class="cls-1" d="m8,24.7c-.24-.17-.49-.49-.71-.46-.23.02-.55.35-.61.59-.1.4.21.7.61.63.26-.04.47-.31.71-.47,0-.09,0-.19,0-.28Z"/><path class="cls-1" d="m10.61,28.34c-.25.02-.48.3-.72.46,0,.1,0,.19,0,.29.23.17.44.43.69.49.37.08.62-.17.65-.56.03-.43-.22-.71-.61-.68Z"/><path class="cls-1" d="m5.78,19.56c.03-.22-.28-.49-.43-.73-.1,0-.19,0-.29-.01-.17.23-.44.45-.49.7-.08.41.22.72.61.65.24-.05.56-.37.6-.61Z"/><path class="cls-1" d="m6.44,12.69c.24-.05.55-.38.59-.61.03-.22-.28-.48-.43-.72-.1,0-.2,0-.29,0-.17.23-.43.45-.48.71-.07.41.22.71.62.63Z"/><path class="cls-1" d="m5,12.47c-.07-.24-.41-.54-.64-.56-.22-.01-.46.32-.68.5,0,.1,0,.19.01.29.24.15.48.41.74.44.42.05.69-.29.58-.67Z"/><path class="cls-1" d="m8.25,28.86c-.23.03-.55.35-.6.6-.09.4.21.7.62.62.26-.05.47-.32.7-.49v-.29c-.25-.16-.51-.47-.72-.44Z"/></g></svg>