<?xml version="1.0" encoding="UTF-8"?><svg id="Capa_2" xmlns="http://www.w3.org/2000/svg" viewBox="0 0 28.4 41.59"><defs><style>.cls-1{fill:#8a5081;}</style></defs><g id="Capa_1-2"><path class="cls-1" d="m6.79,24.92c-.32.74-.65,1.43-.51,2.28.13.76.03,1.56.15,2.34.17,1.07,1.06,1.54,1.93.92.69-.49,1.37-1.02,2.02-1.57,1.01-.85,2.26-1.04,3.28-.27.6.45.62.86,0,1.3-.59.44-1.14.93-1.69,1.41-.79.69-1.26,1.57-1.71,2.47-.51,1.02-1.19,1.9-2.02,2.68-.37.35-.87.39-1.25.69-.9.7-1.33,1.66-1.51,2.75-.05.31-.15.61-.45.59-.39-.03-.29-.42-.26-.68.17-1.49.74-2.78,2.15-3.45,1.14-.54,1.92-1.4,2.41-2.47.82-1.78,1.95-3.27,3.57-4.37.12-.08.26-.19.18-.33-.1-.17-.24-.32-.49-.35-.68-.08-1.26.12-1.78.56-.66.56-1.34,1.11-2.05,1.62-1.27.93-2.99.15-3.15-1.45-.08-.78-.07-1.56-.15-2.34-.13-1.27.51-2.39.79-3.58.02-.07.04-.13.06-.2.09-.31.29-.74-.03-.88-.4-.17-.42.36-.57.6-1.01,1.56-1.84,3.21-2.28,5.04-.1.43-.39.83-.83,1.07-.16.09-.28.16-.41-.03-.07-.1-.25-.16-.11-.33.93-1.13,1.04-2.61,1.66-3.87.14-.28.3-.56.54-1-.9.33-1.49.8-1.89,1.47-.68,1.14-1.12,2.41-1.61,3.64-.29.74.05,1.55.11,2.33.15,2.06.47,4.11.13,6.2-.09.56-.23,1.12-.31,1.68-.04.26-.2.47-.44.45-.31-.03-.3-.32-.25-.55.31-1.52.52-3.04.41-4.59-.11-1.6-.28-3.2-.41-4.81-.1-1.29.74-2.28,1.07-3.43.58-2.01,2.34-2.78,3.85-3.82.75-.52,1.05-1.31.78-2.16-.58-1.83-1.33-3.6-1.69-5.49-.45-2.31-.42-4.55.81-6.67.48-.83.27-1.72-.12-2.55-.6-1.28-.73-2.63-.35-3.96C4.74.5,5.61-.13,7.61.02c1.13.08,2.08,1.22,2.32,2.25.32,1.37.07,2.69-.34,3.99-.13.41-.11.63.38.6.08,0,.19.03.26.08.25.18.82.16.63.64-.15.36-.54.21-.82.01-.02-.01-.04-.02-.07-.02-1.46-.4-1.46-.4-1.01-1.84.36-1.17.62-2.33.16-3.56-.43-1.16-1.28-1.66-2.62-1.44-.92.15-1.54.97-1.6,2.02-.04.8.11,1.56.32,2.31.23.83.84,1.29,1.7,1.37.24.02.6-.06.6.29,0,.29-.32.51-.62.4-1.01-.37-1.02.29-1.2.99-.2.79-.73,1.46-.95,2.27-.5,1.87-.2,3.67.27,5.49.71,2.71,1.92,5.26,2.45,8.02.34,1.79.67,3.59.24,5.41-.06.25,0,.56-.4.49-.37-.07-.38-.4-.31-.66.23-.77.18-1.56.14-2.34-.03-.63-.09-1.27-.36-1.88Z"/><path class="cls-1" d="m19.76,17.12c-.17.84-.35,1.59-.47,2.35-.05.34-.24.57-.51.53-.34-.05-.22-.42-.18-.64.16-.99.27-1.99.55-2.95.47-1.64.37-3.16-.54-4.62-.35-.56-.35-1.12.1-1.69.7-.88.67-1.26-.05-2.15-.13-.17-.12-.35-.02-.52.13-.22.29-.09.47-.04.87.24,1.16,1.56.71,2.13-.88,1.12-.41,2.07.03,3.12.36.85,1.17.96,1.85,1.3.57.28,1.18.48,1.77.73.16.07.32.16.42.34.39.68.82,1.34,1.21,2.01.13.22.33.48-.04.71-.39.25-.47-.08-.61-.3-.26-.4-.53-.8-.75-1.22-.48-.89-1.34-1.17-2.42-1.49,1.02,1.18,1.62,2.4,2.2,3.63.12.25.42.51,0,.75-.41.22-.51-.14-.63-.38-.58-1.18-1.16-2.34-2.02-3.35-.18-.21-.34-.42-.63-.59-.12.53-.2,1.03.09,1.47.47.71.57,1.49.53,2.3-.02.44-.02.88,0,1.32.05,1-.33,1.74-1.22,2.21-.97.51-1.69-.04-2.42-.55-.89-.62-1.64-1.44-2.72-1.77-.16-.05-.32-.13-.47-.07-.26.12-.67.09-.74.42-.06.29.29.35.49.49,1.56,1.05,2.7,2.46,3.56,4.12.46.89,1.14,1.57,1.98,2.13.94.63,1.81,1.33,2.36,2.36.15.27.31.58-.07.77-.41.21-.48-.2-.6-.43-.52-.96-1.37-1.57-2.24-2.16-1.12-.76-1.87-1.82-2.49-2.98-.73-1.36-1.81-2.37-3-3.29-.04-.03-.1-.03-.12-.06-.27-.34-.94-.49-.72-1.05.23-.59.76-.96,1.43-1.03,1.28-.15,2.15.64,3.08,1.3.47.33.91.7,1.41,1,.75.44,1.72-.13,1.68-1-.03-.77.09-1.52.14-2.27.02-.3,0-.59-.34-.88Z"/><path class="cls-1" d="m17.03,31.78c.05-1.29.1-2.57.27-3.85.04-.28.14-.44.42-.44.32,0,.31.25.28.45-.19,1.18-.07,2.39-.24,3.58-.1.71.03,1.44-.04,2.15-.14,1.47-.19,2.95-.65,4.4-.61,1.93-2.89,3.55-4.85,3.52-1.82-.02-3.4-.42-4.66-1.78-.36-.39-.63-.85-.89-1.31-.14-.25-.17-.52.12-.66.31-.16.47.09.56.34.95,2.57,4.74,3.33,6.83,2.23,1.42-.74,2.12-1.99,2.43-3.48.34-1.69.34-3.43.43-5.14Z"/><path class="cls-1" d="m25.94,25.24c-.03-2.24.27-4.76.49-7.28.12-1.37.61-2.71.96-4.05.05-.2.07-.41.11-.61.05-.23.29-.55-.06-.64-.26-.07-.36.33-.45.53-.43.88-.8,1.79-1.18,2.69-.11.26-.2.57-.58.41-.4-.16-.2-.44-.09-.69.46-1.05.92-2.1,1.38-3.14.25-.57.75-.73,1.26-.53.48.19.76.56.59,1.21-.44,1.68-.78,3.38-1.19,5.07-.21.86-.14,1.75-.18,2.61-.09,1.75-.41,3.49-.34,5.25.03.76.09,1.51.25,2.26.06.3.19.74-.28.78-.44.04-.44-.35-.51-.72-.18-.94-.11-1.89-.15-3.13Z"/><path class="cls-1" d="m11.82,6.25c.02-1.01.14-1.98.65-2.9.25-.45.22-1.04-.14-1.5-.39-.5-.95-.27-1.43-.25-.27,0-.57.23-.67-.16-.1-.41.32-.49.57-.56.76-.2,1.5-.16,2.08.48.59.65.53,1.46.28,2.16-.41,1.15-.74,2.3-.73,3.53,0,.35.02.63.49.67.3.02.55.24.47.56-.09.34-.37.16-.62.17-.84.02-.99-.47-.95-1.14.02-.35,0-.69,0-1.04Z"/><path class="cls-1" d="m14.22,8.03c-.03-.59.09-1.13.44-1.63.33-.47.49-1.03.65-1.58.23-.79-.23-1.48-1.03-1.6-.27-.04-.62-.03-.57-.42.04-.34.37-.28.62-.27,1.39.02,2.21,1.58,1.56,2.98-.3.64-.67,1.25-.87,1.92-.15.49-.32,1.08.31,1.48.25.16.27.5.06.74-.24.28-.35-.07-.53-.13-.77-.28-.62-.91-.65-1.48Z"/><path class="cls-1" d="m10.62,20.49c-.1-1.82,1.51-3.79,3.95-3.45.28.04.57.13.49.52-.06.29-.24.33-.52.26-1.1-.26-2.01.14-2.67.99-.61.79-.76,1.71-.34,2.66.07.17.15.33.24.49.11.19.13.37-.09.46-.19.08-.39.11-.54-.13-.36-.58-.65-1.17-.52-1.79Z"/><path class="cls-1" d="m18.29,6.61c.06.61-.29,1.09-.48,1.62-.24.68-.82,1.33-.2,2.11.09.11,0,.29-.09.36-.11.08-.24.15-.43.05-.54-.28-.7-.66-.56-1.24.21-.82.63-1.56.92-2.35.3-.83.14-1.2-.66-1.57-.26-.12-.38-.27-.3-.53.09-.28.34-.19.53-.17.75.08,1.27.8,1.27,1.71Z"/></g></svg>