<?xml version="1.0" encoding="UTF-8"?><svg id="Capa_2" xmlns="http://www.w3.org/2000/svg" viewBox="0 0 31.02 26.78"><defs><style>.cls-1{fill:#8a5081;}</style></defs><g id="Capa_1-2"><path class="cls-1" d="m2.1,4.52c-.26-.02-.41.03-.48.3-.04.16-.19.3-.3.44-.03.04-.1.07-.11.11-.08.5-.35.94-.33,1.48.04.95.01,1.91.01,2.87,0,1.23,0,2.46,0,3.69,0,.29,0,.59.07.88.05.23.17.45.27.67.05.12.11.25.17.37.05.11.12.21.18.31,0,.01.03.02.04.04.09.31.18.62.26.93.07.26.14.52.17.78.02.17-.03.35-.04.52,0,.12,0,.24,0,.36,0,.13.05.26.03.38-.04.24-.11.47-.15.7-.06.32.09.68-.21.95-.06.05-.02.2-.04.3-.03.18.07.41-.2.51-.02,0-.02.05-.03.08-.24.69-.29,1.4-.29,2.12,0,.54-.04,1.1.09,1.61.08.33.08.72.37,1,.14.14.03.5-.12.67-.08.09-.1.21-.26.18-.13-.02-.19-.05-.27-.18-.16-.27-.2-.58-.31-.84-.14-.31-.08-.63-.21-.9-.38-.83-.11-1.68-.17-2.52,0-.06,0-.14.02-.16.27-.18.13-.47.2-.69.12-.37.27-.73.41-1.09,0,0,.01-.02.01-.03.09-.38.24-.76.26-1.15.04-.72.05-1.44,0-2.16-.03-.34-.23-.67-.37-1-.07-.17-.17-.32-.23-.49-.12-.33-.23-.66-.33-.99-.04-.14.03-.31-.16-.42-.06-.03-.06-.21-.06-.32C0,12.7,0,11.55,0,10.41c0-1.29,0-2.57.01-3.86,0-.15-.04-.32.15-.42.06-.03.07-.19.06-.29-.06-.4.23-.68.36-1.01.09-.23.26-.43.4-.64.07-.11.15-.23.25-.32.24-.2.5-.36.73-.57.08-.07.12-.21.15-.32.1-.4.11-.86.32-1.19.18-.28.37-.58.59-.84.24-.28.55-.49.83-.63C4.11.18,4.41,0,4.78,0c1.36.03,2.73.01,4.09.02.15,0,.33-.05.4.17,0,.02.05.04.07.04.42,0,.68.35,1.03.52.12.06.19.23.28.35.14.19.28.38.42.57.02.02.05.04.05.06.02.38.33.68.26,1.09-.05.26.16.4.35.54.13.1.24.24.35.36.1.11.18.24.3.31.22.13.33.31.42.54.09.23.26.44.4.65,0,.02.03.03.03.04.08.3.22.59.23.89.03,1.69.03,3.39.03,5.08,0,.74-.04,1.48.01,2.21.04.57-.16,1.09-.29,1.62-.06.28-.29.52-.46.77-.07.1-.42.02-.48-.1-.06-.13-.31-.15-.19-.37.13-.23.26-.46.38-.69.01-.02.04-.04.04-.07.08-.44.22-.87.23-1.31.03-2.21.02-4.43.02-6.65,0-.11-.08-.21-.12-.32-.01-.03-.06-.07-.05-.1.06-.36-.2-.61-.31-.91-.08-.22-.27-.39-.4-.59-.04-.07-.06-.15-.09-.22-.42-.07-.42-.07-.42.34,0,1.76,0,3.52.01,5.28,0,.15,0,.3-.01.45-.01.26-.18.42-.37.57-.19.15-.39.28-.59.4-.08.05-.2.04-.3.04-1.19,0-2.39,0-3.58,0-.91,0-1.82.01-2.73,0-.28,0-.6.14-.81-.19-.25.06-.36-.19-.54-.27-.02,0-.06-.03-.06-.05-.03-.35-.3-.6-.29-.99.04-1.78.02-3.56.02-5.34,0-.07,0-.15-.01-.25Zm.99,6.13c.25.03.47.07.69.07,1.25,0,2.5,0,3.75.01.29,0,.6-.07.88.13.06.04.18,0,.27,0,.2-.04.39-.11.59-.13.28-.02.57,0,.85-.02.29-.02.5-.27.5-.56,0-2.38,0-4.77-.02-7.15,0-.27-.15-.54-.23-.82,0,0-.01-.02-.02-.02-.14-.18-.29-.35-.42-.54-.13-.19-.26-.38-.52-.41-.04,0-.09-.02-.13-.05-.16-.14-.76-.39-.95-.39-1.04,0-2.08-.02-3.12.01-.31,0-.61.16-.91.25-.02,0-.03.05-.05.06-.16.12-.32.24-.48.36-.09.07-.17.15-.24.24-.06.07-.13.15-.16.23-.09.23-.36.38-.31.69.03.18-.02.38-.02.57,0,2.29,0,4.58,0,6.87,0,.2.02.39.04.61Z"/><path class="cls-1" d="m21.78,19.35c0,.62,0,1.25,0,1.87,0,.14.05.33-.17.41-.03.01-.06.09-.06.15-.02.25-.24.35-.38.52-.1.12-.27.19-.34.28-.16.19-.33.14-.5.19-.16.04-.32.11-.48.15-.08.02-.17.03-.25.04-.4,0-.8.01-1.19,0-.26,0-.53.07-.77-.15-.08-.08-.27-.02-.41-.04-.16-.02-.37.07-.44-.19,0-.02-.08-.03-.13-.04-.29-.03-.44-.24-.54-.47-.17-.4-.6-.73-1.05-.74-.69,0-1.38-.03-2.07.02-.28.02-.54.2-.7.49-.09.17-.23.32-.37.45-.18.16-.38.29-.58.44-.02.02-.05.02-.08.02-.58.02-1.12.32-1.72.21-.24-.04-.49,0-.74,0-.2,0-.42.07-.57-.15-.03-.05-.16-.02-.24-.03-.18-.03-.41.08-.49-.19,0-.01-.05-.02-.08-.02-.3,0-.42-.23-.56-.44-.13-.21-.28-.41-.4-.62-.06-.1-.09-.23-.09-.35,0-1.16,0-2.33,0-3.49,0-.17.28-.67.43-.82.18-.18.35-.37.53-.56.02-.02.02-.06.04-.07.28-.1.56-.27.85-.28.84-.04,1.68-.02,2.53-.01.2,0,.64.27.88.4.32.18.47.5.71.73.3.28.65.52,1.11.5.33,0,.67-.03.99,0,.4.05.75-.09,1.1-.24.13-.05.22-.21.32-.32.17-.2.34-.41.52-.61.06-.07.15-.13.23-.16.27-.11.54-.28.82-.29.87-.04,1.74-.04,2.61,0,.28.02.54.28.82.35.34.08.43.4.63.6.14.15.31.36.3.65-.04.61-.01,1.23-.01,1.84,0,0,0,0,0,0Zm-.72.02c0-.27-.02-.55,0-.82.04-.52-.01-1.01-.44-1.38-.19-.16-.33-.36-.64-.36-.84.02-1.68.03-2.52,0-.29-.01-.49.15-.61.3-.23.29-.41.62-.73.83-.18.12-.4.28-.6.29-.93.03-1.85.02-2.78,0-.08,0-.15-.05-.22-.08-.1-.04-.19-.1-.29-.14-.05-.02-.12-.01-.16-.05-.23-.24-.49-.47-.68-.75-.19-.29-.42-.42-.76-.41-.77,0-1.53,0-2.3,0-.21,0-.4,0-.61.21-.22.22-.42.4-.42.73,0,.08-.04.16-.07.24-.03.1-.11.2-.11.29,0,.73-.03,1.46,0,2.18.02.33.15.65.23.98,0,.02.02.03.03.05.38.33.78.58,1.32.54.46-.04.93,0,1.39-.01.32,0,.63.04.93-.16.26-.17.52-.29.56-.64,0-.03.02-.08.05-.09.18-.11.37-.2.53-.33.35-.28.79-.33,1.2-.36.74-.05,1.49-.04,2.23.14.43.1.68.37.94.67.13.16.21.39.37.49.28.16.55.34.92.3.43-.04.87,0,1.3-.01.39,0,.8.09,1.15-.18.16-.12.41-.2.46-.35.1-.3.35-.55.3-.93-.05-.39-.01-.79-.01-1.19Z"/><path class="cls-1" d="m26.04,15.13c-.01-.18-.03-.35-.03-.52,0-1.43,0-2.86,0-4.29,0-.13-.11-.26-.14-.39-.04-.19-.03-.4-.09-.58-.06-.19-.18-.36-.29-.54,0,0-.14.04-.16.08-.03.09-.02.19-.02.28,0,.75.02,1.5-.01,2.24-.02.47-.21.88-.6,1.2-.15.13-.31.12-.44.21-.57.36-1.18.14-1.77.17-.89.04-1.78.01-2.67,0-.23,0-.7-.27-.92-.39-.48-.25-.48-.67-.48-1.11,0-.79,0-1.57,0-2.36,0-.13.08-.34-.16-.35-.22-.01-.25.14-.28.31-.03.13-.12.24-.17.37-.04.11-.07.23-.07.35,0,1.22,0,2.44-.01,3.66,0,.36,0,.72,0,1.08,0,.5-.16.64-.62.59-.42-.35-.27-.81-.28-1.23-.01-1.25-.02-2.5,0-3.75,0-.38.1-.77.23-1.13.11-.32.28-.63.47-.9.16-.22.42-.36.6-.58.13-.16.28-.24.46-.29.03,0,.06-.07.06-.12.04-.26.26-.37.4-.56.24-.32.6-.34.9-.51.41-.23.79-.14,1.19-.16.69-.03,1.38,0,2.07,0,.19,0,.78.27.96.38.17.1.38.11.47.33.04.09.12.16.18.24.13.15.26.31.41.45.18.19.38.36.57.55.13.13.28.26.39.41.11.15.21.31.27.49.11.31.26.63.26.95.03,1.67.02,3.35.02,5.03,0,.38-.19.47-.72.35Zm-4.24-3.04s0,0,0,0c.65,0,1.31,0,1.96,0,.47,0,.63-.16.63-.63,0-.98,0-1.97,0-2.95,0-.37.1-.77-.23-1.08-.25-.24-.43-.55-.83-.55-1.03,0-2.06,0-3.09.01-.14,0-.29-.03-.36.18-.04.11-.18.19-.29.28-.11.09-.41.63-.41.78,0,1.1,0,2.19,0,3.29,0,.44.22.67.67.67.65,0,1.31,0,1.96,0Z"/><path class="cls-1" d="m31,17.54v.7c-.65,0-1.27.02-1.89-.01-.16,0-.35-.14-.47-.27-.26-.27-.46-.61-.74-.84-.16-.13-.32-.32-.62-.3-.84.04-1.68.03-2.53,0-.29-.01-.46.17-.6.31-.32.32-.5.71-.47,1.22.05.81.01,1.63.01,2.44,0,.15.3.67.39.78.34.44.8.47,1.3.46.48-.01.97-.03,1.45,0,.37.03.67-.12.95-.29.17-.1.27-.31.39-.47.25-.36.54-.63,1.01-.69.44-.06.87-.2,1.32-.16.29.03.51.2.52.44.01.38-.07.47-.46.47-.21,0-.42.03-.62-.01-.39-.09-.67.14-.98.28-.12.06-.24.21-.28.34-.11.34-.38.45-.66.62-.49.3-.98.4-1.53.38-.51-.02-1.02,0-1.53,0-.1,0-.2-.07-.3-.11-.05-.02-.1-.08-.14-.07-.31.06-.57-.09-.77-.26-.23-.19-.39-.46-.56-.71-.47-.73-.18-1.55-.23-2.33-.04-.67,0-1.34,0-2.02,0-.28.18-.44.35-.62.1-.11.2-.23.3-.34.17-.18.41-.27.62-.39.59-.36,1.22-.14,1.83-.2.3-.03.61.03.91-.01.43-.07.77.18,1.13.31.23.08.35.42.57.58.24.17.37.43.66.58.42.22.84.14,1.26.17.13,0,.26.02.42.03Z"/></g></svg>