<?xml version="1.0" encoding="UTF-8"?><svg id="Capa_2" xmlns="http://www.w3.org/2000/svg" viewBox="0 0 442.09 66.01"><defs><style>.cls-1{fill:#fff;}</style></defs><g id="Capa_2-2"><g id="Capa_1-2"><path class="cls-1" d="m296.16,9.03c-.26,2.22-.14,33.46.12,34.24-.27-.78-.12-34.24-.12-34.24Z"/><path class="cls-1" d="m329.24,8.89c-10.59,0-21.18,0-31.77.01-.45,0-.89.08-1.31.13l35.68-.14h-2.6Z"/><path class="cls-1" d="m331.87,13.26c.04-1.52.09-2.9-.02-4.37l.02,4.37Z"/><path class="cls-1" d="m325.2,23.35h-9.06c5.23.03,10.24.07,10.48.08-.51-.03-.96-.08-1.42-.08Z"/><path class="cls-1" d="m419.51,3.95c1.08,6.53,2.75,12.87,5.71,18.83,1.03,2.07,1.7,4.27,2.1,6.56.26,1.49.66,2.95.86,4.45.26,1.95,1.33,3.26,3,4.07,1.42.69,2.93,1.19,4.4,1.77.47.19.95.35,1.4.56.31.15.58.38.87.57-.03.1-.06.19-.09.29-.18,0-.39.06-.54,0-.39-.18-.75-.42-1.13-.63-.77-.42-.81-.41-1.2.48-.34-.11-.67-.26-1.02-.31-.16-.02-.35.14-.53.22.1.17.16.4.31.49.33.21.73.32,1.06.52.68.42,1.09,1.08.94,1.45-.15.38-.77.45-1.69.22-.61-.16-1.17-.34-1.41-1.02-.08-.22-.28-.43-.47-.58-.6-.45-1.22-.88-1.85-1.3-.15-.1-.37-.1-.6-.15-.16.57.19.8.49,1.03.4.31.83.56,1.25.85.31.21.63.52.43.88-.15.26-.53.46-.85.54-.29.07-.63-.06-.95-.11-.99-.15-1.98-.32-2.97-.47-.39-.06-.79-.07-1.18-.12-1.43-.2-2.57-.87-3.42-2.04-1.29-1.77-2.55-3.58-3.92-5.29-2.59-3.23-5.62-5.96-9.27-7.98-.75-.41-1.46-.95-2.05-1.56-1.36-1.39-1.71-3.05-.99-4.87.26-.66.62-1.3,1-1.91.45-.73.92-1.47,1.47-2.13,1.53-1.87,1.78-3.96,1.14-6.2-.72-2.49-1.48-4.96-2.22-7.44-.2-.68-.39-1.36-.58-2.04h.01-1.02c.17.17.26.42.34.69.89,2.93,1.8,5.85,2.7,8.77.62,2.02.43,3.91-.9,5.62-.2.26-.39.52-.57.79-.58.87-1.2,1.71-1.71,2.62-1.32,2.35-1,4.83.89,6.74.55.55,1.21,1.03,1.89,1.42,4.14,2.35,7.52,5.54,10.35,9.34.97,1.3,1.9,2.63,2.84,3.94.74,1.03,1.69,1.78,2.95,2.05.81.17,1.63.28,2.44.41s1.64.18,2.44.39c.88.24,1.68.24,2.5-.21.25-.14.66-.21.9-.1,1.5.68,2.89.22,4.28-.3.59-.22.95-.6.94-1.29,0-.3.14-.62.26-.91.26-.64.23-.97-.31-1.43-.3-.25-.64-.48-1-.63-.96-.4-1.94-.76-2.93-1.1-1.26-.44-2.49-.94-3.58-1.73-.92-.67-1.52-1.49-1.71-2.64-.2-1.21-.47-2.4-.71-3.6-.5-2.47-.95-4.95-2-7.27-.62-1.38-1.32-2.72-1.89-4.12-2.07-5.09-3.45-10.38-4.28-15.81-.08-.51-.1-1.04-.15-1.64h-.9c.14.77.3,1.58.44,2.4v-.02Zm17.72,38.91c-.23.29-.53.13-.7-.14-.28-.45-.53-.92-.79-1.38.06-.07.13-.14.19-.2.45.33.94.61,1.33,1,.12.12.09.57-.03.74v-.02Z"/><path class="cls-1" d="m403.41,2.31c-.98,3.32-1.75,6.68-2.09,10.13-.34,3.34-.31,6.67.07,10.02.21,1.88.18,3.81.09,5.71-.11,2.15-.37,4.3-.63,6.45-.15,1.27.29,2.17,1.35,2.82.25.15.49.31.74.45,1.55.84,3.09,1.69,4.65,2.51.41.22.86.37,1.3.52.4.13.75.29.75.79,0,.46-.12.85-.73.99-.65-1.46-2.06-1.88-3.38-2.43-.63-.26-1.25-.55-1.87-.83-.34-.16-.66-.27-.99.3.73.36,1.42.7,2.12,1.04.71.34,1.44.66,2.15,1.01.25.13.51.29.7.49.54.55.38,1.34-.37,1.51-.54.13-1.18.17-1.69,0-1.24-.42-2.48-.34-3.74-.32-1.37.03-2.74,0-4.1-.08-1.16-.08-2.26-.44-3.16-1.24-.86-.76-1.27-1.73-1.27-2.87,0-1.44.04-2.88-.01-4.32-.1-2.81-.91-5.45-2.03-8.01-.43-.98-1.21-1.68-2.13-2.23-1.14-.68-2.32-1.31-3.39-2.1-1.27-.93-2.16-2.19-2.63-3.72-.3-.96-.16-1.88.35-2.7.43-.69.98-1.33,1.55-1.91,1.36-1.38,2.94-2.54,4.06-4.17,1.67-2.43,3.04-4.97,3.34-7.97.03-.26.09-.46.22-.59h-.95c-.04.49-.05.89-.12,1.27-.31,1.68-.92,3.24-1.76,4.73-1.18,2.11-2.76,3.84-4.56,5.44-.88.78-1.67,1.7-2.36,2.65-.73,1-.88,2.18-.55,3.4.49,1.83,1.63,3.19,3.1,4.29.74.56,1.58,1,2.39,1.46.94.54,1.97,1.04,2.46,2.04,1.31,2.63,2.22,5.39,2.24,8.38,0,1.4-.02,2.81-.02,4.21s.59,2.43,1.57,3.31,2.19,1.29,3.45,1.39c1.64.14,3.3.09,4.95.13.75.02,1.57-.11,2.24.14,1.87.68,3.38-.05,4.87-.99.72-.45.88-1.19.79-1.99-.09-.76-.62-1.07-1.28-1.29-.54-.18-1.08-.41-1.58-.67-1.24-.65-2.47-1.32-3.7-2-.56-.32-1.11-.67-1.64-1.04-.45-.31-.63-.78-.57-1.32.13-1.29.32-2.57.41-3.87.15-2.15.34-4.31.33-6.46-.01-1.83-.39-3.65-.43-5.49-.07-2.95-.02-5.91.45-8.84.45-2.85,1.07-5.66,1.97-8.4.08-.23.15-.39.25-.5h-1.05c-.04.26-.05.52-.12.76h-.01Z"/><path class="cls-1" d="m296.16,9.03s-.14,33.46.12,34.24h35.55v-4.35h-27.76c-.03-.43-.06-.64-.06-.85v-8.75c0-.25,0-.51.02-.76.06-.7.13-.76.87-.79h.54c6.66,0,13.33,0,19.99-.01.38,0,.76-.03,1.19-.05v-4.26c-.24-.01-5.25-.05-10.48-.08-5.77-.04-11.82-.08-12.05-.09v-10h27.78l-.02-4.37-35.68.14v-.02Z"/><path class="cls-1" d="m369.85,25.07c-1.24-.62-2.61-1.1-3.97-1.33-3.19-.54-6.41-.9-9.61-1.33-2.67-.36-5.35-.69-8.02-1.06-1.12-.15-2.15-.59-3.07-1.25-1.02-.73-1.41-1.96-1.03-3.16.26-.82.75-1.46,1.43-1.98.84-.65,1.81-1.02,2.83-1.29,2.71-.73,5.47-.84,8.25-.81,4.92.06,9.76.61,14.42,2.33.16.06.34.07.6.12.28-1.68.13-3.32.21-5-.9-.23-1.69-.48-2.5-.64-6.15-1.24-12.35-1.49-18.59-1.03-2.52.19-4.99.69-7.33,1.68-3.39,1.42-6.06,4.25-5.9,8.78.12,3.31,1.67,5.58,4.46,7.12,1.49.82,3.14,1.28,4.82,1.52,3.03.43,6.07.73,9.11,1.09,2.32.28,4.64.55,6.96.87,1.29.18,2.53.56,3.65,1.27,1.71,1.09,2.15,3.06,1.09,4.8-.52.86-1.32,1.41-2.18,1.88-1.65.9-3.45,1.27-5.28,1.43-7.7.68-15.31.17-22.78-1.94-.3-.09-.62-.14-1.15-.26v3.82c0,1.16-.01,1.16,1.08,1.45.17.05.35.07.53.11,4.37.95,8.79,1.54,13.26,1.64,3.71.08,7.42.21,11.1-.39,2.24-.36,4.45-.82,6.53-1.81,3.22-1.54,5.47-3.81,5.88-7.54.43-3.92-.99-7.19-4.76-9.1h-.04Z"/><path class="cls-1" d="m266.23,10.78c-3-1.37-6.2-1.86-9.46-1.88-7.31-.05-14.61-.02-21.92,0-.38,0-.76.07-1.18.12v34.25h7.89v-10.97c0-.32-.05-.67.05-.96.08-.22.33-.44.55-.52.26-.09.57-.03.86-.03,4.54,0,9.07-.02,13.61,0,2.84.02,5.59-.47,8.27-1.34,3.92-1.27,6.4-3.83,7.04-8.04.67-4.43-1.62-8.75-5.72-10.62h0Zm-6.03,14.81c-1.21.61-2.51.9-3.85.92-3.92.06-7.85.07-11.77.11-.76,0-1.51.02-2.27.04-.48.01-.74-.18-.74-.69.02-4.11.02-8.21.04-12.32,0-.07.05-.13.14-.35.36-.02.72-.05,1.07-.05,3.89,0,7.78-.02,11.67,0,1.58.01,3.16.19,4.69.65,2.56.76,4.28,2.84,4.52,5.47.23,2.59-1.14,5.02-3.48,6.2l-.02.02Z"/><path class="cls-1" d="m83.29,8.99v14.68c-1.8.23-32.6.15-33.48-.11v-14.68c-1.42.06-2.72-.13-4.07.17v34.21h4.01c.03-.42.07-.8.07-1.19v-14.7c0-.35.03-.69.05-1.01,1.23-.23,32.49-.19,33.41.05v.92c.03,4.97.05,9.94.09,14.91,0,.34.07.68.1,1.01h3.74c.24-1.04.26-33.22.01-34.27h-3.94.01Z"/><path class="cls-1" d="m100.16,8.9c-.49,0-.97.08-1.42.12-.25,1.57-.16,33.42.07,34.21,1.31.21,33.65.13,34.42-.09v-2.17c-.47-.03-.85-.07-1.24-.07-9.36,0-18.72,0-28.08-.02-.38,0-.76-.03-1.08-.05v-14.26c.54-.04.99-.09,1.44-.09h22.68c.35,0,.7-.04,1.1-.07v-2.27c-.49-.03-.91-.09-1.33-.09-7.49,0-14.98,0-22.47-.01-.46,0-.92-.05-1.42-.08v-12.62h30.4v-2.4c-.75,0-1.42-.02-2.09-.02h-31l.02-.02Z"/><path class="cls-1" d="m193.92,25.86c-3.79,5.79-7.78,11.45-11.55,17.47.89,0,1.57-.04,2.25,0,.65.05,1.04-.2,1.39-.75,1.76-2.72,3.59-5.39,5.34-8.12.45-.7.95-.91,1.76-.91,7.52.03,15.05.02,22.57.02,2.04,0,2.03,0,3.15,1.72,1.61,2.47,3.24,4.93,4.86,7.4.2.3.36.62.8.62h4.11c-7.73-11.7-15.42-23.16-23.1-34.79-3.92,5.85-7.81,11.56-11.59,17.33h.01Zm-.24,5.07c3.77-5.65,7.38-11.24,11.16-16.91,3.78,5.76,7.41,11.3,11.07,16.87-.91.29-20.96.33-22.22.04h-.01Z"/><path class="cls-1" d="m286.49,40.58V10.01c0-1.1-.07-1.15-1.16-1.15-1.8,0-3.6.01-5.4.03-.39,0-.78.05-1.21.07-.08.24-.13.34-.13.44v33.16c0,.18.04.36.06.53,0,.03.04.06.06.08.02.03.05.05.07.08,1.74.19,6.84.11,7.71-.14v-2.54h0Z"/><path class="cls-1" d="m.09,9.12v1.97h17.65v32.18c1.41.1,2.68.1,4.07,0V11.09h17.63v-1.98c-1.09-.31-38.36-.29-39.35,0h0Z"/><path class="cls-1" d="m300.04,56.79c-.86-.26-1.74-.46-2.61-.69-.31-.08-.63-.16-.92-.29-.48-.22-.86-.55-.88-1.13-.01-.47.38-1.02.99-1.15.65-.14,1.35-.17,2.02-.14.64.03,1.18.34,1.45.97.3.67.81.72,1.53.49-.04-.99-.49-1.7-1.22-2.22-1.34-.95-3.67-.92-5.01.04-1.04.74-1.41,1.98-.98,3.15.33.88,1.07,1.24,1.88,1.47,1.04.3,2.09.52,3.13.82.84.24,1.02.49,1.04,1.16.02.81-.19,1.26-.99,1.45-.75.18-1.56.18-2.34.14-.72-.04-1.25-.45-1.59-1.13-.42-.83-.54-.85-1.56-.47.13,1.08.53,2,1.57,2.5,1.58.75,3.21.8,4.8.06,1.16-.54,1.71-1.5,1.65-2.79-.05-1.13-.67-1.86-1.98-2.26l.02.02Z"/><path class="cls-1" d="m397.99,56.87c-.4-.15-.83-.22-1.25-.33-.87-.23-1.74-.45-2.59-.72-.54-.17-.77-.62-.77-1.18s.31-.87.76-1.08c.68-.31,1.39-.3,2.12-.19.64.1,1.13.32,1.44.96.37.75.58.77,1.6.44-.06-.96-.49-1.72-1.33-2.19-1.41-.79-2.89-.83-4.36-.21-1.11.48-1.73,1.55-1.67,2.67.07,1.11.7,1.83,2.02,2.22,1.03.3,2.09.54,3.12.86.84.26,1.11.63,1.1,1.27-.01.69-.45,1.33-1.23,1.43-.8.1-1.65.09-2.45-.06-.43-.08-.87-.5-1.15-.88-.62-.82-.58-.85-1.71-.62.21,1.1.56,2.04,1.57,2.52,1.69.79,3.42.82,5.1-.05,1.02-.53,1.42-1.51,1.41-2.62,0-1.15-.68-1.86-1.72-2.24h-.01Z"/><path class="cls-1" d="m438.54,56.85c-.61-.21-1.25-.33-1.87-.51-.66-.19-1.32-.35-1.95-.6-.46-.18-.78-.54-.77-1.07.01-.52.33-.92.8-1.06.61-.18,1.26-.31,1.89-.28.67.03,1.32.24,1.72.93.48.83.52.81,1.54.57-.08-1.04-.47-1.74-1.24-2.25-1.35-.88-3.6-.85-4.93.07-1,.69-1.38,1.88-1.03,3.04.29.95,1.04,1.35,1.89,1.6,1.07.31,2.16.53,3.23.84.54.15.97.44.97,1.12,0,.79-.17,1.13-.85,1.46-.79.38-1.61.3-2.44.19-.73-.09-1.25-.48-1.61-1.13-.46-.85-.52-.85-1.56-.49.11,1,.44,1.89,1.39,2.38,1.74.9,3.53.95,5.27,0,1.06-.59,1.42-1.59,1.35-2.75-.07-1.12-.8-1.73-1.79-2.07v.02Z"/><path class="cls-1" d="m387.92,53.4c-.02,1.33-.02,2.66-.04,3.99-.01.83-.12,1.65-.56,2.39-.59,1-1.71,1.44-2.89,1.15-.96-.24-1.35-.82-1.41-2.14-.01-.32,0-.65,0-.97,0-1.47.02-2.95.02-4.42,0-.38-.06-.76-.09-1.18h-1.31c-.07.14-.14.2-.14.26,0,2.34-.1,4.68,0,7.01.09,1.84,1.31,2.82,3.16,2.84.9,0,1.69-.27,2.37-.86.22-.2.47-.36.81-.62.08.52.13.86.19,1.26.45-.02.83-.04,1.27-.06v-9.8h-1.34c-.02.44-.05.79-.05,1.15h.01Z"/><path class="cls-1" d="m279.02,52.12c-1.27-.34-2.5-.26-3.53.73-.21.2-.47.36-.77.6-.13-.49-.22-.83-.32-1.2-.2-.02-.38-.07-.55-.06-.2,0-.41.06-.68.11,0,3.28-.14,6.5.03,9.76h1.44v-1.18c0-1.22-.03-2.45.04-3.67.05-.82.15-1.66.4-2.43.38-1.15,1.59-1.69,2.92-1.47.82.14,1.7.86,1.66,2.18-.05,1.8,0,3.6,0,5.4,0,.38.03.77.05,1.13h1.38c0-2.56.07-5.04-.03-7.52-.05-1.22-.86-2.07-2.04-2.39h0Z"/><path class="cls-1" d="m379.07,52.14c-.34-.06-.69-.1-1.12-.16v-2.59h-1.51v2.63c-.45.08-.75.07-1,.19-.18.09-.38.35-.37.54,0,.17.23.43.41.48.92.27.92.25.92,1.18.02,1.94.12,3.89.06,5.83-.05,1.34.95,1.98,2.06,1.88.92-.09,1.05-.24.84-1.24-1.42-.37-1.43-.37-1.44-1.88,0-1.58,0-3.17.01-4.75,0-.31.06-.61.1-.93.4-.03.7,0,.96-.09.2-.07.42-.26.49-.45.1-.3-.06-.57-.41-.63h0Z"/><path class="cls-1" d="m306.17,58.88c-.04-1.33,0-2.66,0-3.99,0-1.02.49-1.6,1.48-1.75v-.91c-.49-.07-.94-.14-1.47-.22v-2.62h-1.41c-.31.94.24,1.89-.32,2.71-.36.06-.7.12-1.1.19.03.34.05.61.08.9.38.03.69.06,1.14.1.03.53.06.95.07,1.38.03,1.91.02,3.81.1,5.72.06,1.31.65,1.77,1.96,1.71.93-.04,1.05-.2.9-1.2-1.55-.4-1.4-.49-1.44-2.02h.01Z"/><path class="cls-1" d="m323.43,52.39c-.48.31-.89.72-1.43,1.17-.06-.55-.1-.9-.15-1.3h-1.25v9.77h1.39c0-1.3-.02-2.51,0-3.73.02-.86.04-1.73.18-2.58.19-1.18.89-1.93,2.09-2.17.3-.06.61-.13.9-.19v-1.37c-.71-.11-1.25.1-1.72.41h-.01Z"/><path class="cls-1" d="m355.36,53.53c-.21-.96-.73-1.36-1.56-1.21,0,3.23-.03,6.48,0,9.73h1.45v-1.21c0-1.4-.02-2.81.03-4.21.05-1.62.56-2.93,2.81-3.17.1,0,.2-.07.32-.11v-1.24c-1.46-.51-2.09.81-3.04,1.42h-.01Z"/><path class="cls-1" d="m417.83,62.04h1.46v-9.77h-1.46v9.77Z"/><path class="cls-1" d="m258.34,52.18v9.85h1.36c.24-1.32.17-9.08-.08-9.85h-1.28Z"/><path class="cls-1" d="m259.79,48.29c-.47-.02-.94-.04-1.46-.07v1.73h1.46v-1.66Z"/><path class="cls-1" d="m417.82,48.37v1.66c.55-.04.98-.07,1.53-.12-.04-.61-.07-1.08-.11-1.66-.56.05-.99.08-1.42.12Z"/><path class="cls-1" d="m180.79,41.08c-1.31.06-2.55.14-3.81.15-2.08.03-3.56-.97-4.53-2.77-.48-.89-.9-1.8-1.35-2.71-1.15-2.31-2.5-4.46-4.73-5.92-.07-.05-.08-.18-.16-.38.81-.15,1.58-.29,2.35-.43,1.57-.3,3.07-.82,4.42-1.66,2.73-1.68,4.04-4.22,4.28-7.35.28-3.59-.74-6.64-3.89-8.68-.84-.54-1.78-.95-2.72-1.29-2.36-.85-4.83-1.14-7.32-1.15-6.88-.02-13.75-.02-20.63-.01-.37,0-.75.08-1.09.12-.25,2.5-.14,33.4.12,34.25h3.64v-12.66c0-1.01.07-1.1,1.01-1.1,4.1,0,8.21,0,12.31.03,2.75.03,4.94,1.17,6.41,3.53.61.98,1.16,1.98,1.72,2.99.71,1.29,1.35,2.63,2.11,3.89,1.17,1.95,2.89,3.18,5.14,3.61,1.83.35,3.65.25,5.45-.21,1.4-.36,1.42-.35,1.36-1.81,0-.17-.09-.33-.13-.48l.04.04Zm-18.34-14.04h-16.09c-.28,0-.56-.04-.9-.06-.02-.37-.06-.69-.06-1v-13.94c0-.5.26-.71.75-.7h15.99c2.02,0,4.01.17,5.98.73,3.25.93,5.45,3.74,5.16,7.74-.28,3.94-2.47,5.76-5.58,6.68-1.72.51-3.48.55-5.24.56h0Z"/><path class="cls-1" d="m414.01,19.14c.25,1.19.58,2.37.88,3.56.1.39.23.71.8.35-.03-.19-.03-.33-.07-.47-.97-4.05-1.98-8.1-2.58-12.23-.03-.23-.23-.45-.35-.68-.59.34-.45.74-.37,1.12.55,2.78,1.1,5.57,1.68,8.34h.01Z"/><path class="cls-1" d="m253.81,54.88c-.06-.03-.11-.09-.3-.26.35-.37.7-.63.92-.98.3-.47.63-.99.71-1.52.28-1.87-.95-3.43-2.87-3.55-1.97-.12-3.95-.11-5.92-.14-.27,0-.54.1-.84.16v13.38c.18.06.28.11.38.11,1.47,0,2.95.03,4.42,0,.75,0,1.51-.07,2.25-.2,1.71-.3,2.95-1.46,3.22-2.93.35-1.95-.18-3.05-1.98-4.09v.02Zm-6.61-4.82c1.74-.02,3.41-.26,5.06.19.89.24,1.28.82,1.28,1.75s-.42,1.55-1.32,1.83c-.27.08-.56.18-.84.18-1.35.02-2.71,0-4.18,0v-3.96h0Zm5.16,10.37c-.39.07-.79.09-1.18.09-1.19,0-2.37,0-3.56,0-.1,0-.21-.05-.41-.1v-4.68c.24-.05.41-.11.58-.1,1.54.04,3.09.02,4.62.18,1.2.12,1.8,1.01,1.78,2.29,0,1.22-.71,2.13-1.83,2.32Z"/><path class="cls-1" d="m271.02,57.62c-.05-.83-.03-1.48-.15-2.11-.4-2.1-2.11-3.55-4.15-3.56-2.1,0-3.94,1.41-4.36,3.46-.18.87-.23,1.79-.19,2.67.13,3.04,2.55,4.53,5.13,4.21,1.86-.23,3.08-1.38,3.37-3.09-.98-.27-1.06-.25-1.58.51-.81,1.19-2.25,1.61-3.62,1.07-1.19-.47-1.79-1.62-1.58-3.17h7.13Zm-4.47-4.32c1.71-.09,2.76,1.01,2.79,3.1-1.86.11-3.66.14-5.45-.04-.11-1.71,1.03-2.98,2.66-3.06Z"/><path class="cls-1" d="m288.84,52.03c-1.98-.29-3.55.45-4.53,2.03-.78,1.27-.87,2.64-.77,4.06.3,4.17,4.43,5.03,6.89,3.56.92-.55,1.52-1.37,1.68-2.47-1.05-.27-1.2-.2-1.63.55-.12.21-.3.39-.48.55-.77.67-1.68.75-2.64.58-1.47-.26-2.38-1.69-2.02-3.28h6.94c.3-.97.11-1.78-.14-2.56-.51-1.63-1.52-2.76-3.29-3.02h0Zm-3.55,4.36c-.26-1.54.85-2.95,2.46-3.06,1.67-.11,2.91.42,3.05,3.04-1.89.17-3.71.1-5.51.02h0Z"/><path class="cls-1" d="m318,61.12c-.58-.06-.67-.43-.65-.92.02-.5.02-1.01,0-1.51-.04-1.44-.07-2.88-.14-4.31-.03-.77-.44-1.35-1.08-1.78-1.4-.96-4.1-.86-5.4.23-.63.52-1.08,1.14-.93,2.09h1.06c.06-.07.12-.11.16-.17.34-.65.7-1.23,1.55-1.34.77-.1,1.51-.12,2.23.15.67.25,1.05.95.95,1.64-.08.61-.34.81-1.25.93-.18.02-.36.02-.54.06-.99.17-2.01.24-2.95.56-1.45.49-2.04,1.7-1.8,3.28.18,1.2,1.18,2.13,2.53,2.26.49.05,1.03.04,1.49-.12.83-.29,1.62-.71,2.57-1.14.09.14.21.35.35.55.44.67,1.04.94,1.75.7.22-.07.45-.34.53-.57.11-.31-.07-.56-.43-.6h0Zm-5.52.13c-.98-.06-1.63-.65-1.74-1.58-.12-1.02.24-1.64,1.29-1.91,1.17-.29,2.37-.45,3.55-.67.71,2.4-.76,4.29-3.1,4.15h0Z"/><path class="cls-1" d="m334,53.05c-.1.08-.23.12-.38.2-.16-.38-.29-.7-.44-1.05-.25,0-.47-.02-.68,0-.13,0-.26.08-.45.14v13.61h1.45c.02-.83.03-1.61.06-2.39.03-.75-.22-1.54.19-2.29.16.08.27.11.35.17,2.41,1.69,5.19.81,6.14-1.97.46-1.35.57-2.75.28-4.15-.66-3.22-4.02-4.39-6.52-2.28h0Zm4.88,5.81c-.24,1.1-.78,2.02-2.01,2.28-1.65.35-3-.61-3.24-2.32-.07-.49-.01-1-.01-1.5h-.11c.11-.78.16-1.57.35-2.33.31-1.27,1.33-1.97,2.63-1.92,1.3.05,2.09.73,2.38,2.07.27,1.25.28,2.51.01,3.74v-.02Z"/><path class="cls-1" d="m350.39,59.72c0-.29.02-.58.02-.86-.02-1.44-.02-2.88-.07-4.32-.04-1.12-.62-1.89-1.69-2.27-1.41-.5-2.83-.49-4.21.11-1.04.45-1.56,1.31-1.67,2.43.69.16,1.2,0,1.51-.51.73-1.17,3.2-1.4,4.13-.38.12.13.23.28.31.44.35.72.09,1.37-.67,1.63-.34.11-.7.13-1.05.2-1.05.21-2.14.32-3.15.66-1.1.37-1.74,1.54-1.66,2.77.07,1.18.66,2.03,1.79,2.46,1.35.5,2.61.26,3.81-.47.35-.22.71-.44,1.06-.66.72,1.23,1.31,1.58,2.15,1.35.54-.15.6-.54.46-.99-.72-.31-1.08-.83-1.07-1.58h0Zm-5.01,1.47c-1.13-.15-1.77-1.05-1.55-2.16.12-.58.48-.96,1.02-1.16,1.22-.45,2.5-.6,3.83-.76.59,2.56-.96,4.39-3.3,4.08Z"/><path class="cls-1" d="m368.53,61.19c-.95-.13-.82-.82-.83-1.47-.02-1.76-.04-3.52-.09-5.29-.04-1.09-.65-1.8-1.66-2.16-1.38-.49-2.77-.47-4.11.07-1.08.44-1.68,1.28-1.74,2.48,1.02.25.98.23,1.5-.5.23-.33.58-.65.95-.8.79-.32,1.63-.27,2.44-.04.32.09.64.34.86.61.65.81.33,1.73-.67,1.99-.28.07-.57.07-.85.12-1.02.19-2.07.29-3.06.6-1.18.37-1.81,1.45-1.78,2.68.03,1.32.63,2.19,1.85,2.63,1.32.48,2.55.19,3.72-.48.37-.21.72-.44,1.04-.63.12.09.17.1.18.13.07.12.14.25.21.37.37.69,1.08,1.03,1.79.78.22-.08.42-.36.51-.59.05-.12-.14-.48-.25-.49h-.01Zm-5.88,0c-.93-.12-1.42-.62-1.54-1.53-.12-.89.24-1.51,1.15-1.82,1.19-.4,2.43-.6,3.73-.7.53,2.61-.99,4.37-3.34,4.05Z"/><path class="cls-1" d="m409.04,53.04c-.07.06-.2.07-.35.12-.15-.32-.29-.63-.46-1-.4.03-.77.05-1.19.08v13.71c.27.02.48.06.69.06.24,0,.47-.04.73-.06.22-1.59-.06-3.13.22-4.73.56.34.97.7,1.45.86,1.96.69,3.79,0,4.76-1.86.96-1.81,1.04-3.76.37-5.66-.98-2.72-3.96-3.4-6.21-1.51h-.01Zm4.54,6.57c-.45,1.15-1.22,1.63-2.42,1.57-1.1-.05-1.95-.54-2.28-1.64-.22-.75-.29-1.54-.43-2.29.16-.86.24-1.69.48-2.47.35-1.15,1.23-1.76,2.31-1.75,1.16,0,2.22.71,2.53,1.82.43,1.59.43,3.2-.18,4.76h-.01Z"/><path class="cls-1" d="m430.62,57.62c-.14-.96-.17-1.71-.36-2.42-.46-1.69-1.47-2.88-3.3-3.15-1.97-.3-3.6.46-4.61,2.1-.75,1.23-.79,2.6-.72,3.97.21,3.91,4.31,5.26,7.07,3.45.84-.55,1.39-1.32,1.48-2.36-1.02-.23-1.06-.21-1.62.58-.81,1.15-2.28,1.53-3.67.96-1.14-.47-1.71-1.6-1.49-3.13h7.22Zm-4.52-4.33c1.77,0,2.77,1.08,2.72,3.09-1.79.19-3.59.11-5.42,0-.36-1.72,1.32-3.09,2.7-3.09Z"/><polygon class="cls-1" points="0 0 0 1.55 391.66 1.55 392.62 1.55 403.53 1.55 404.58 1.55 405.99 1.55 407.01 1.55 419.07 1.55 419.97 1.55 442.09 1.55 442.09 0 0 0"/></g></g></svg>